<?xml version="1.0" encoding="utf-8"?>
<!-- Generator: Adobe Illustrator 16.0.4, SVG Export Plug-In . SVG Version: 6.00 Build 0)  -->
<!DOCTYPE svg PUBLIC "-//W3C//DTD SVG 1.1//EN" "http://www.w3.org/Graphics/SVG/1.1/DTD/svg11.dtd">
<svg version="1.1" id="Layer_1" xmlns="http://www.w3.org/2000/svg" xmlns:xlink="http://www.w3.org/1999/xlink" x="0px" y="0px"
	 width="680.966px" height="201.113px" viewBox="83.052 201.113 680.966 201.113"
	 enable-background="new 83.052 201.113 680.966 201.113" xml:space="preserve">
<g>
	<g>
		<polyline fill="none" stroke="#CBDB2B" stroke-width="2.7858" stroke-miterlimit="10" points="159.862,289.157 151.098,292.079 
			151.408,281.244 160.152,283.49 167.271,283.566 175.397,280.084 175.629,291.848 168.219,289.737 		"/>
		<polyline fill="none" stroke="#CBDB2B" stroke-width="2.7858" stroke-miterlimit="10" points="160.655,284.071 160.152,290.065 
			167.465,290.144 167.117,283.993 		"/>
		<g>
			<path fill="#CBDB2B" d="M162.925,261.628c0,0-0.188-0.085-0.516-0.234c-0.317-0.133-0.756-0.306-1.229-0.397
				c-0.231-0.056-0.475-0.077-0.703-0.08c-0.23-0.006-0.45,0.028-0.663,0.071c-0.215,0.06-0.423,0.122-0.648,0.224
				c-0.3,0.132-0.604,0.266-0.909,0.398c-0.332,0.135-0.732,0.275-1.108,0.385c-0.382,0.116-0.821,0.189-1.237,0.237
				c-0.471,0.014-0.896,0.033-1.364-0.12c-0.452-0.085-0.812-0.364-1.115-0.589c-0.287-0.239-0.435-0.543-0.588-0.767
				c-0.157-0.221-0.183-0.47-0.245-0.645c-0.101-0.362-0.117-0.572-0.117-0.572s0.221,0.074,0.538,0.212
				c0.162,0.059,0.335,0.171,0.545,0.22c0.213,0.036,0.423,0.126,0.634,0.13c0.214-0.02,0.389,0.019,0.592-0.073
				c0.168-0.018,0.412-0.148,0.632-0.218c0.269-0.118,0.544-0.24,0.825-0.364c0.31-0.151,0.609-0.258,0.962-0.416
				c0.364-0.137,0.635-0.262,1.163-0.396c0.471-0.13,0.986-0.158,1.467-0.107c0.484,0.059,0.936,0.206,1.31,0.412
				c0.374,0.207,0.679,0.454,0.909,0.713c0.463,0.519,0.674,1.028,0.773,1.392C162.934,261.404,162.925,261.628,162.925,261.628z"/>
		</g>
		<g>
			<path fill="#CBDB2B" d="M163.259,261.628c0,0-0.008-0.225,0.094-0.588c0.1-0.362,0.311-0.873,0.773-1.392
				c0.23-0.259,0.535-0.506,0.909-0.713c0.374-0.206,0.825-0.354,1.31-0.412c0.48-0.051,0.995-0.021,1.467,0.107
				c0.528,0.135,0.799,0.261,1.163,0.396c0.353,0.158,0.653,0.265,0.962,0.416c0.28,0.124,0.558,0.246,0.825,0.364
				c0.221,0.068,0.464,0.2,0.632,0.218c0.203,0.092,0.377,0.055,0.592,0.073c0.211-0.004,0.421-0.094,0.634-0.13
				c0.21-0.049,0.383-0.161,0.545-0.22c0.317-0.138,0.538-0.212,0.538-0.212s-0.017,0.21-0.117,0.572
				c-0.062,0.175-0.088,0.423-0.245,0.645c-0.154,0.224-0.302,0.525-0.588,0.767c-0.303,0.225-0.664,0.504-1.115,0.589
				c-0.469,0.153-0.894,0.134-1.364,0.12c-0.416-0.048-0.854-0.121-1.236-0.238c-0.376-0.107-0.777-0.25-1.108-0.384
				c-0.305-0.134-0.609-0.268-0.908-0.398c-0.226-0.102-0.434-0.164-0.648-0.224c-0.213-0.043-0.433-0.078-0.663-0.071
				c-0.229,0.003-0.472,0.024-0.703,0.08c-0.473,0.093-0.911,0.266-1.229,0.397C163.447,261.543,163.259,261.628,163.259,261.628z"
				/>
		</g>
		<path fill="none" stroke="#CBDB2B" stroke-width="2.7858" stroke-miterlimit="10" d="M149.589,243.985c0,0-0.076,6.19,1.78,6.732
			c1.857,0.542,7.661,0.078,7.661,0.078s2.167-6.037,1.083-6.501C159.03,243.831,151.523,243.366,149.589,243.985z"/>
		<path fill="none" stroke="#CBDB2B" stroke-width="2.7858" stroke-miterlimit="10" d="M177.634,243.985c0,0,0.077,6.19-1.779,6.732
			c-1.857,0.542-7.661,0.078-7.661,0.078s-2.167-6.037-1.083-6.501C168.193,243.831,175.7,243.366,177.634,243.985z"/>
		<path fill="none" stroke="#CBDB2B" stroke-width="2.7858" stroke-miterlimit="10" d="M160.423,244.682
			c0,0,3.309-0.812,6.151-0.174"/>
	</g>
	<g>
		<path fill="#CBDB2B" d="M106.682,375.093l1.159-7.385l0.581-3.691l0.298-1.845c0.104-0.602,0.193-1.247,0.319-1.854
			c0.502-2.467,1.093-4.896,1.797-7.316l0.576-1.805c0.182-0.604,0.404-1.199,0.642-1.792c0.245-0.591,0.425-1.196,0.727-1.774
			l0.862-1.75l-0.117,0.314c0.314-2.19,0.656-4.438,0.92-6.534l0.214-1.592l0.108-0.794c0.047-0.362,0.042-0.578,0.064-0.875
			l0.243-3.388l0.479-6.651l0.227-3.313c0.042-0.557,0.056-1.094,0.084-1.641l0.038-0.815l-0.004-0.669
			c-0.018-1.118-0.117-2.21-0.129-3.349l0.004-3.461c0.004-1.153,0.063-2.261,0.095-3.394l0.056-1.691l0.161-1.766
			c0.058-0.575,0.107-1.209,0.172-1.736l0.242-1.62c0.162-1.106,0.328-2.231,0.54-3.359c0.422-2.255,0.938-4.526,1.914-6.811
			c0.49-1.135,1.14-2.306,2.218-3.369c0.272-0.267,0.55-0.525,0.931-0.737c0.331-0.214,0.788-0.464,0.991-0.536
			c0.518-0.223,0.998-0.452,1.547-0.671c2.167-0.9,4.24-1.603,5.979-2.529c0.396-0.256,0.838-0.472,1.181-0.758l0.534-0.41
			l0.034-0.024c-0.031,0.022,0.325-0.248,0.186-0.141l0.021-0.014l0.189-0.114l0.301-0.164l0.378-0.201l2.946-1.557l5.819-3.155
			c0.958-0.534,1.909-1.075,2.834-1.63c0.917-0.55,1.849-1.132,2.582-1.688c0.167-0.13,0.341-0.278,0.377-0.322
			c0-0.002,0.008-0.009,0.008-0.002c-0.065,0.071-0.119,0.16-0.153,0.253c-0.084,0.195-0.019,0.04-0.034,0.077l0.01-0.024
			l0.02-0.048l0.039-0.098l0.076-0.193c0.24-0.566,0.305-0.895,0.466-1.377c0.282-0.995,0.547-2.025,0.742-3.043
			c0.104-0.504,0.183-1.014,0.243-1.479c0.017-0.208,0.051-0.471,0.059-0.634c-0.009-0.044-0.01-0.087-0.004-0.131l0.004-0.033
			l0.003-0.018l0.002-0.008c0.036,0.146-0.079-0.339,0.082,0.325l-0.066-0.198c-0.038-0.104-0.105-0.354-0.104-0.226
			c-0.017,0.035,0.026,0.114,0.015,0.086c-0.179-0.267-0.346-0.461-0.534-0.789c-0.395-0.605-0.665-1.229-0.936-1.854
			c-0.97-2.473-1.216-4.759-1.576-7.078l1.346,1.821c-0.384-0.175-0.663-0.315-0.991-0.5c-0.315-0.176-0.638-0.378-0.979-0.625
			c-0.181-0.146-0.34-0.258-0.532-0.437c-0.211-0.22-0.38-0.366-0.601-0.672c-0.12-0.182-0.231-0.375-0.328-0.571l-0.135-0.3
			l-0.034-0.091l-0.143-0.39c-0.417-1.131-0.814-2.324-1.135-3.565c-0.151-0.632-0.302-1.264-0.396-1.953
			c-0.059-0.332-0.084-0.702-0.118-1.059c-0.01-0.386-0.041-0.742-0.001-1.178c0.021-0.219,0.024-0.413,0.065-0.647
			c0.046-0.238,0.099-0.477,0.155-0.713c0.079-0.256,0.196-0.535,0.312-0.794l0.044-0.098l0.011-0.024l0.006-0.012l0.133-0.22
			l0.017-0.021l0.062-0.091l0.124-0.183l0.247-0.362c0.138-0.177,0.36-0.42,0.552-0.615c0.203-0.21,0.414-0.403,0.604-0.533
			c0.193-0.144,0.367-0.282,0.713-0.467l-1.261,2.417c-0.422-3.072-0.789-6.054-0.904-9.265c-0.023-0.812-0.029-1.621,0.082-2.621
			l0.06-0.401c0.02-0.127,0.037-0.258,0.106-0.48c0.058-0.197,0.125-0.395,0.197-0.587c0.059-0.172,0.083-0.194,0.126-0.301
			l0.431-0.994c0.605-1.417,1.286-2.88,2.101-4.299c0.818-1.421,1.762-2.825,2.997-4.123c1.228-1.277,2.818-2.506,4.863-3.086
			c0.077-0.022,0.091-0.033,0.219-0.065l0.137-0.033l0.274-0.065l0.549-0.132l1.104-0.263c0.787-0.156,1.571-0.334,2.361-0.469
			c1.574-0.258,3.173-0.479,4.838-0.518l1.248-0.021c0.422,0.013,0.854,0.059,1.278,0.089c0.846,0.03,1.721,0.219,2.589,0.396
			c0.434,0.065,0.868,0.229,1.303,0.38c0.45,0.163,0.827,0.28,1.335,0.491c0.354,0.176,0.643,0.293,1.061,0.521
			c0.396,0.207,0.787,0.417,1.132,0.63c1.433,0.848,2.772,1.812,4.028,2.915c1.251,1.103,2.421,2.342,3.42,3.787
			c0.992,1.439,1.826,3.115,2.196,5.018c0.105,0.467,0.125,0.967,0.179,1.449l0.008,0.091l0.004,0.046l0.003,0.157l-0.003,0.142
			l-0.005,0.282l-0.011,0.564l-0.044,2.258c-0.011,0.379-0.006,0.745-0.03,1.136l-0.109,1.197l-0.225,2.395
			c-0.195,1.583-0.389,3.062-0.677,4.65l-0.819-2.242c0.361,0.311,0.499,0.48,0.715,0.722c0.185,0.235,0.375,0.46,0.529,0.721
			c0.326,0.5,0.604,1.055,0.782,1.67c0.105,0.298,0.166,0.614,0.208,0.938l0.033,0.241l0.015,0.121l0.007,0.061
			c0.004,0.123,0.002-0.19,0.01,0.292l-0.013,0.3l-0.026,0.599c-0.009,0.199-0.005,0.375-0.07,0.697l-0.167,0.856
			c-0.062,0.277-0.128,0.599-0.199,0.779l-0.418,1.248c-0.271,0.718-0.5,1.467-0.871,2.365c-0.387,0.866-0.789,1.821-1.843,2.825
			c-0.523,0.486-1.334,0.973-2.263,1.099c-0.23,0.035-0.459,0.054-0.676,0.041l-0.331-0.019l-0.082-0.007
			c1.029,0.004,0.265,0.004,0.484,0.005l-0.075,0.009l-0.037,0.004c-0.029,0.002-0.029,0.005,0.091-0.008
			c0.171-0.019,0.351-0.064,0.518-0.14s0.32-0.174,0.445-0.284l0.126-0.109c0.06-0.057,0.117-0.137,0.152-0.194
			c0.015-0.015,0.026-0.031,0.036-0.049c0.03-0.082-0.089,0.239-0.142,0.511c-0.063,0.305-0.121,0.64-0.165,0.997
			c-0.093,0.709-0.155,1.465-0.201,2.227c-0.09,1.528-0.121,3.095-0.125,4.661l0.017,2.355l0.011,0.591l0.005,0.62
			c0.012,0.127,0.024,0.19,0.025,0.292l0.085,0.343c0.226,0.956,1.027,1.942,1.968,2.812l0.798,0.612l0.396,0.312
			c0.144,0.096,0.308,0.174,0.458,0.263l0.927,0.521l0.463,0.263c0.101,0.056,0.099,0.062,0.285,0.158l0.267,0.138l4.256,2.203
			c1.42,0.743,2.842,1.601,4.251,2.414c1.431,0.811,2.764,1.688,4.149,2.528l2.028,1.286l0.126,0.08l0.031,0.021
			c-0.039-0.021,0.132,0.077-0.079-0.043l0.066,0.034c0.085,0.045,0.192,0.104,0.221,0.107l0.393,0.162l1.096,0.438
			c1.5,0.594,3.035,1.224,4.562,2.008c0.766,0.396,1.534,0.842,2.312,1.406l0.587,0.474c0.199,0.181,0.399,0.394,0.594,0.594
			c0.198,0.22,0.399,0.531,0.578,0.804c0.024,0.043-0.006-0.021,0.062,0.11l0.018,0.033l0.032,0.067l0.064,0.136l0.13,0.27
			c0.344,0.667,0.705,1.596,1.005,2.366c0.283,0.787,0.571,1.572,0.803,2.37c0.507,1.585,0.881,3.211,1.202,4.856
			c0.128,0.836,0.264,1.667,0.341,2.521c0.048,0.85,0.123,1.763,0.104,2.53l0.016,4.793c0.018,3.191-0.002,6.398,0.053,9.575
			c0.026,1.586,0.024,3.196,0.076,4.764l0.112,2.317l0.056,1.161l0.014,0.29l0.003,0.073l0.01,0.099l0.016,0.148l0.057,0.597
			c0.28,3.245,0.431,6.409,0.749,9.562c0.156,1.569,0.353,3.135,0.653,4.611l0.289,1.01c0.135,0.412,0.274,0.761,0.412,1.145
			l0.826,2.25c0.564,1.492,1.089,3.01,1.597,4.534l0.771,2.279l0.024,0.071c0.044,0.141,0.021,0.081,0.035,0.131l0.03,0.146
			l0.063,0.294l0.125,0.587c0.092,0.384,0.146,0.797,0.208,1.203c0.5,3.27,0.847,6.38,1.181,9.583l0.925,9.548l-0.275,0.033
			l-1.219-9.505c-0.438-3.158-0.854-6.344-1.406-9.464c-0.112-0.777-0.323-1.573-0.509-2.32l-0.821-2.25
			c-0.538-1.502-1.094-2.998-1.694-4.479l-0.878-2.229c-0.143-0.371-0.302-0.743-0.43-1.114l-0.371-1.166
			c-0.362-1.571-0.595-3.157-0.791-4.745c-0.396-3.176-0.624-6.367-0.97-9.535c-0.186-1.579-0.229-3.194-0.349-4.791
			c-0.074-1.6-0.096-3.195-0.146-4.794c-0.103-3.194-0.127-6.39-0.192-9.584c-0.115-3.191,0.089-6.407-0.563-9.52
			c-0.646-3.103-1.583-6.183-2.962-9.03c-0.302-0.754-0.818-1.262-1.468-1.729c-0.638-0.45-1.324-0.843-2.033-1.196
			c-1.419-0.705-2.901-1.292-4.394-1.856c-0.729-0.301-1.524-0.521-2.238-0.95l-2.041-1.254c-1.375-0.81-2.724-1.667-4.121-2.433
			c-1.396-0.771-2.763-1.589-4.18-2.323l-4.268-2.182c-0.7-0.361-1.411-0.775-2.116-1.163c-0.175-0.102-0.357-0.188-0.525-0.302
			l-0.483-0.369l-0.968-0.739c-1.188-1.086-2.312-2.373-2.742-4.003l-0.145-0.606l-0.058-0.628c0.005-0.4-0.016-0.794-0.021-1.196
			l-0.028-2.4c-0.004-1.601,0.018-3.201,0.104-4.805c0.044-0.801,0.104-1.603,0.204-2.403c0.116-0.802,0.2-1.603,0.584-2.403
			c0.05-0.102,0.114-0.201,0.208-0.298c0.039-0.084,0.329-0.232,0.398-0.222l0.073-0.008c0.037-0.001-0.029-0.005,0.094-0.003
			l0.032,0.001l0.131,0.005c0.087,0.01,0.173-0.002,0.257-0.017c0.34-0.048,0.656-0.224,0.923-0.469
			c0.539-0.5,0.897-1.214,1.198-1.931c0.297-0.722,0.533-1.486,0.81-2.24l0.372-1.126c0.122-0.375,0.17-0.743,0.263-1.114
			c0.094-0.367,0.053-0.789,0.084-1.183l0.012-0.299c-0.014-0.042-0.028-0.17-0.042-0.251c-0.023-0.186-0.054-0.369-0.122-0.545
			c-0.222-0.706-0.659-1.382-1.204-1.867l-0.113-0.101l0.025-0.142c0.259-1.471,0.447-2.968,0.624-4.451l0.2-2.233
			c0.079-0.743,0.136-1.488,0.125-2.244l0.032-2.258c0-0.369,0.024-0.771,0.002-1.111c-0.05-0.36-0.054-0.729-0.14-1.083
			c-0.285-1.435-0.945-2.781-1.788-3.99c-1.709-2.421-4.064-4.361-6.619-5.872c-0.64-0.383-1.292-0.708-1.981-1.026
			c-0.332-0.131-0.69-0.242-1.034-0.365c-0.348-0.12-0.689-0.256-1.059-0.305c-0.724-0.142-1.444-0.303-2.189-0.322
			c-0.37-0.022-0.738-0.063-1.109-0.074l-1.116,0.021c-1.487,0.023-2.974,0.222-4.448,0.455c-1.466,0.255-2.946,0.569-4.388,0.945
			c-1.394,0.389-2.614,1.275-3.633,2.331c-1.022,1.063-1.873,2.297-2.621,3.584c-0.749,1.289-1.389,2.644-1.985,4.021l-0.458,1.037
			c-0.167,0.353-0.226,0.628-0.275,1.009c-0.083,0.72-0.092,1.47-0.071,2.215c0.09,2.988,0.438,5.985,0.831,8.96l0.022,0.163
			l-0.157,0.097c-0.207,0.128-0.455,0.298-0.625,0.484c-0.092,0.095-0.191,0.177-0.281,0.28l-0.249,0.36
			c-0.067,0.111-0.197,0.264-0.216,0.341c-0.047,0.123-0.104,0.239-0.146,0.365c-0.062,0.266-0.119,0.53-0.128,0.813
			c-0.072,1.119,0.163,2.271,0.427,3.393c0.284,1.124,0.644,2.229,1.042,3.325c0.098,0.278,0.198,0.575,0.315,0.745
			c0.153,0.197,0.355,0.384,0.58,0.549c0.449,0.328,0.96,0.61,1.472,0.848l0.123,0.057l0.02,0.137
			c0.321,2.184,0.58,4.413,1.382,6.453c0.217,0.498,0.427,1.001,0.724,1.454c0.127,0.236,0.307,0.454,0.458,0.683
			c0.162,0.259,0.359,0.538,0.414,0.799c0.173,0.621,0.068,1.195,0.015,1.755c-0.076,0.56-0.167,1.113-0.282,1.663
			c-0.219,1.1-0.502,2.183-0.814,3.259c-0.176,0.533-0.333,1.093-0.555,1.599l-0.161,0.396c-0.089,0.158-0.19,0.287-0.297,0.389
			c-0.21,0.216-0.434,0.393-0.659,0.567c-1.827,1.331-3.785,2.392-5.732,3.48c-1.954,1.072-3.928,2.105-5.909,3.125l-2.975,1.519
			c-0.244,0.129-0.514,0.252-0.695,0.367l-0.683,0.511c-0.448,0.351-0.96,0.598-1.443,0.891c-2.01,1.027-4.147,1.701-6.199,2.526
			c-1.019,0.44-2.122,0.762-2.872,1.502c-0.769,0.739-1.35,1.691-1.792,2.694c-0.895,2.011-1.433,4.179-1.868,6.35
			c-0.22,1.087-0.397,2.184-0.574,3.282l-0.272,1.649c-0.078,0.554-0.121,1.102-0.184,1.65l-0.175,1.647l-0.078,1.665
			c-0.046,1.11-0.122,2.222-0.142,3.329l-0.056,3.324c-0.006,1.108,0.079,2.224,0.079,3.336c-0.031,2.271-0.262,4.465-0.443,6.69
			l-0.621,6.65l-0.315,3.316c-0.082,1.094-0.318,2.209-0.471,3.312c-0.331,2.22-0.719,4.404-1.086,6.604l-0.004,0.022l-0.017,0.032
			l-0.854,1.645c-0.3,0.54-0.491,1.138-0.742,1.702c-0.242,0.57-0.475,1.146-0.667,1.736l-0.606,1.761
			c-0.75,2.368-1.395,4.773-1.945,7.195c-0.142,0.605-0.237,1.215-0.359,1.828l-0.348,1.835l-0.694,3.671l-1.39,7.34
			L106.682,375.093z"/>
	</g>
	<g>
		
			<path fill="none" stroke="#00B258" stroke-width="1.8572" stroke-linecap="round" stroke-linejoin="round" stroke-miterlimit="10" d="
			M149.202,242.669c0,0-0.077,6.19,1.78,6.732c1.856,0.542,7.661,0.077,7.661,0.077s2.167-6.035,1.083-6.499
			C158.643,242.515,151.136,242.051,149.202,242.669z"/>
		
			<path fill="none" stroke="#00B258" stroke-width="1.8572" stroke-linecap="round" stroke-linejoin="round" stroke-miterlimit="10" d="
			M177.247,242.669c0,0,0.077,6.19-1.78,6.732c-1.856,0.542-7.66,0.077-7.66,0.077s-2.167-6.035-1.083-6.499
			C167.806,242.515,175.313,242.051,177.247,242.669z"/>
		
			<path fill="none" stroke="#00B258" stroke-width="1.8572" stroke-linecap="round" stroke-linejoin="round" stroke-miterlimit="10" d="
			M160.036,243.366c0,0,3.309-0.813,6.152-0.176"/>
		<g>
			<path fill="#00B258" d="M162.925,260.546c0,0-0.162-0.12-0.444-0.293c-0.28-0.174-0.686-0.396-1.151-0.568
				c-0.23-0.089-0.488-0.143-0.74-0.182c-0.254-0.04-0.513-0.035-0.771-0.009c-0.259,0.041-0.52,0.098-0.784,0.203
				c-0.312,0.132-0.632,0.266-0.951,0.398c-0.335,0.137-0.72,0.272-1.084,0.389c-0.369,0.119-0.777,0.198-1.167,0.26
				c-0.429,0.021-0.824,0.062-1.242-0.063c-0.41-0.054-0.738-0.3-1.025-0.482c-0.277-0.195-0.435-0.464-0.6-0.655
				c-0.166-0.192-0.215-0.418-0.295-0.573c-0.134-0.327-0.188-0.513-0.188-0.513s0.185,0.1,0.468,0.271
				c0.146,0.078,0.294,0.212,0.495,0.29c0.204,0.066,0.403,0.192,0.624,0.24c0.229,0.02,0.438,0.092,0.682,0.032
				c0.218,0.011,0.492-0.104,0.754-0.161c0.565-0.202,1.193-0.469,1.881-0.754c0.358-0.139,0.651-0.271,1.121-0.397
				c0.431-0.125,0.894-0.158,1.33-0.127c0.439,0.042,0.853,0.159,1.201,0.333c0.353,0.17,0.643,0.387,0.872,0.611
				c0.47,0.438,0.715,0.897,0.854,1.222C162.896,260.345,162.925,260.546,162.925,260.546z"/>
		</g>
		<g>
			<path fill="#00B258" d="M163.259,260.546c0,0,0.029-0.201,0.163-0.528c0.139-0.323,0.384-0.783,0.854-1.222
				c0.229-0.226,0.521-0.441,0.872-0.611c0.35-0.174,0.762-0.291,1.201-0.333c0.437-0.031,0.899,0.002,1.331,0.127
				c0.469,0.126,0.763,0.26,1.12,0.397c0.688,0.285,1.316,0.552,1.882,0.754c0.263,0.059,0.536,0.172,0.754,0.161
				c0.244,0.06,0.451-0.014,0.682-0.032c0.221-0.048,0.42-0.174,0.624-0.24c0.201-0.078,0.35-0.212,0.495-0.29
				c0.283-0.173,0.468-0.271,0.468-0.271s-0.053,0.186-0.188,0.514c-0.08,0.154-0.129,0.38-0.295,0.572
				c-0.165,0.191-0.322,0.46-0.6,0.656c-0.287,0.183-0.615,0.429-1.026,0.481c-0.419,0.125-0.813,0.085-1.242,0.063
				c-0.39-0.062-0.799-0.141-1.168-0.26c-0.365-0.115-0.749-0.252-1.084-0.389c-0.318-0.134-0.638-0.268-0.951-0.398
				c-0.267-0.104-0.525-0.162-0.784-0.203c-0.258-0.026-0.517-0.031-0.771,0.009c-0.253,0.039-0.509,0.093-0.74,0.182
				c-0.466,0.172-0.871,0.396-1.151,0.568C163.422,260.426,163.259,260.546,163.259,260.546z"/>
		</g>
		
			<polyline fill="none" stroke="#00B258" stroke-width="1.8572" stroke-linecap="round" stroke-linejoin="round" stroke-miterlimit="10" points="
			159.862,287.417 151.098,290.338 151.408,279.503 160.152,281.749 167.271,281.825 175.397,278.343 175.629,290.106 
			168.219,287.996 		"/>
		
			<polyline fill="none" stroke="#00B258" stroke-width="1.8572" stroke-linecap="round" stroke-linejoin="round" stroke-miterlimit="10" points="
			160.655,282.33 160.152,288.325 167.465,288.403 167.117,282.252 		"/>
	</g>
	<g>
		<path fill="none" stroke="#CBDB2B" stroke-width="2.7858" stroke-miterlimit="10" d="M162.873,303.278
			c-0.354,0.552-0.444,2.673,1.209,2.8s1.781-0.317,2.099-1.78C166.411,303.235,164.146,301.308,162.873,303.278z"/>
		
			<path fill="none" stroke="#00B258" stroke-width="0.9286" stroke-linecap="round" stroke-linejoin="round" stroke-miterlimit="10" d="
			M163.141,303.502c-0.293,0.453-0.369,2.21,1,2.315c1.37,0.104,1.475-0.264,1.737-1.476
			C166.07,303.464,164.194,301.87,163.141,303.502z"/>
	</g>
	<g>
		<path fill="none" stroke="#CBDB2B" stroke-width="2.7858" stroke-miterlimit="10" d="M162.873,325.722
			c-0.354,0.549-0.444,2.669,1.209,2.798c1.653,0.127,1.781-0.319,2.099-1.781C166.411,325.676,164.146,323.749,162.873,325.722z"/>
		
			<path fill="none" stroke="#00B258" stroke-width="0.9286" stroke-linecap="round" stroke-linejoin="round" stroke-miterlimit="10" d="
			M163.141,325.942c-0.293,0.455-0.369,2.211,1,2.317c1.37,0.104,1.475-0.266,1.737-1.475
			C166.07,325.905,164.194,324.31,163.141,325.942z"/>
	</g>
	<g>
		<path fill="none" stroke="#CBDB2B" stroke-width="2.7858" stroke-miterlimit="10" d="M162.873,348.16
			c-0.354,0.552-0.444,2.67,1.209,2.8c1.653,0.127,1.781-0.319,2.099-1.78C166.411,348.115,164.146,346.189,162.873,348.16z"/>
		
			<path fill="none" stroke="#00B258" stroke-width="0.9286" stroke-linecap="round" stroke-linejoin="round" stroke-miterlimit="10" d="
			M163.141,348.383c-0.293,0.455-0.369,2.211,1,2.317c1.37,0.104,1.475-0.266,1.737-1.476
			C166.07,348.347,164.194,346.751,163.141,348.383z"/>
	</g>
	<g>
		<path fill="none" stroke="#CBDB2B" stroke-width="2.7858" stroke-miterlimit="10" d="M162.873,370.603
			c-0.354,0.549-0.444,2.671,1.209,2.799c1.653,0.126,1.781-0.317,2.099-1.782C166.411,370.559,164.146,368.631,162.873,370.603z"/>
		
			<path fill="none" stroke="#00B258" stroke-width="0.9286" stroke-linecap="round" stroke-linejoin="round" stroke-miterlimit="10" d="
			M163.141,370.824c-0.293,0.454-0.369,2.211,1,2.315c1.37,0.105,1.475-0.262,1.737-1.475
			C166.07,370.786,164.194,369.192,163.141,370.824z"/>
	</g>
	<g>
		<path fill="#00B258" d="M104,376.09c0.619-4.275,1.365-8.533,2.257-12.767c0.45-2.115,0.943-4.224,1.528-6.313
			c0.295-1.044,0.613-2.084,0.982-3.113c0.373-1.027,0.782-2.048,1.36-3.028l-0.062,0.159l1.183-6.961l0.279-1.737
			c0.047-0.292,0.091-0.584,0.117-0.824c0.041-0.277,0.045-0.582,0.08-0.891l0.337-3.528l0.653-7.029
			c0.191-2.334,0.428-4.709,0.474-6.994c-0.082-1.045-0.144-2.354-0.134-3.531c-0.002-1.185,0.013-2.367,0.042-3.549
			c0.07-2.366,0.138-4.721,0.368-7.104c0.063-0.593,0.158-1.229,0.247-1.805c0.102-0.557,0.182-1.138,0.267-1.72
			c0.168-1.164,0.337-2.337,0.532-3.506c0.39-2.34,0.85-4.679,1.548-6.984c0.353-1.15,0.759-2.297,1.316-3.406
			c0.565-1.094,1.234-2.227,2.415-3.033c0.661-0.412,1.141-0.57,1.689-0.836c0.552-0.237,1.026-0.509,1.535-0.765
			c1.003-0.542,1.928-1.173,2.954-1.835c1.024-0.667,2.217-1.185,3.272-1.621l3.252-1.38l6.498-2.768l6.473-2.802l0.788-0.357
			l0.178-0.086c0.023-0.013,0.049-0.027,0.025-0.013c-0.018-0.005-0.253,0.204-0.283,0.332l0.012-0.025l0.022-0.05
			c0.058-0.131,0.13-0.276,0.173-0.395c0.195-0.472,0.388-1.042,0.557-1.579c0.341-1.096,0.635-2.219,0.87-3.341
			c0.118-0.561,0.222-1.124,0.292-1.673c0.062-0.562,0.126-1.079,0-1.423c-0.016-0.013-0.024-0.025-0.029-0.044l-0.074-0.122
			c-0.056-0.091-0.137-0.195-0.22-0.31c-0.171-0.229-0.369-0.487-0.543-0.758c-0.354-0.542-0.654-1.119-0.893-1.701
			c-0.939-2.337-1.302-4.723-1.623-7.09l0.519,0.681c-0.643-0.278-1.216-0.571-1.813-0.972c-0.295-0.204-0.591-0.428-0.884-0.771
			c-0.073-0.091-0.146-0.196-0.214-0.3c-0.061-0.11-0.149-0.304-0.166-0.355l-0.163-0.428c-0.458-1.183-0.886-2.398-1.223-3.653
			c-0.322-1.263-0.613-2.551-0.532-3.998c0.028-0.362,0.082-0.737,0.202-1.125c0.102-0.376,0.387-0.83,0.532-1.038
			c0.1-0.146,0.248-0.321,0.374-0.477c0.133-0.136,0.259-0.274,0.4-0.398c0.292-0.261,0.553-0.461,0.97-0.683l-0.485,0.915
			c-0.25-1.698-0.461-3.384-0.64-5.086c-0.172-1.703-0.319-3.407-0.335-5.159c-0.004-0.438,0.009-0.883,0.038-1.338
			c0.039-0.462,0.07-0.911,0.26-1.482c0.14-0.361,0.212-0.463,0.307-0.67l0.277-0.57l0.57-1.152
			c0.777-1.534,1.623-3.044,2.578-4.497c0.958-1.45,2.021-2.854,3.296-4.108c1.271-1.239,2.788-2.381,4.663-2.899
			c1.697-0.428,3.375-0.76,5.079-1.031c1.703-0.267,3.425-0.461,5.165-0.521c1.739-0.061,3.499,0,5.257,0.294
			c1.761,0.291,3.517,0.924,5.052,1.825c1.54,0.877,2.952,1.922,4.27,3.075c1.312,1.157,2.527,2.437,3.584,3.856
			c1.05,1.421,1.961,2.989,2.496,4.753c0.263,0.876,0.42,1.818,0.424,2.749c-0.005,0.854,0.045,1.679-0.007,2.559
			c-0.062,1.754-0.187,3.458-0.395,5.162c-0.195,1.708-0.438,3.392-0.763,5.098l-0.318-0.852c0.788,0.673,1.312,1.414,1.672,2.35
			c0.169,0.469,0.27,0.937,0.285,1.476c0,0.207,0.01,0.396,0.001,0.617l-0.066,0.729c-0.134,0.904-0.416,1.736-0.702,2.514
			l-0.864,2.301c-0.32,0.788-0.69,1.595-1.299,2.348c-0.309,0.372-0.689,0.734-1.183,0.994c-0.487,0.26-1.097,0.393-1.645,0.325
			l-0.052-0.003c-0.096-0.006,0.071,0.005,0.041,0.004h-0.067c0.112,0.008,0.206-0.032,0.224-0.041
			c0.069-0.031,0.082-0.066,0.067-0.043c-0.026,0.026-0.096,0.161-0.145,0.302c-0.105,0.296-0.184,0.662-0.244,1.032
			c-0.12,0.748-0.181,1.538-0.221,2.329c-0.077,1.586-0.069,3.195-0.031,4.804l0.085,2.415l0.06,1.21
			c0.017,0.177,0.016,0.512,0.016,0.617c0.009,0.149,0.027,0.304,0.063,0.46c0.276,1.284,1.348,2.459,2.513,3.404
			c1.195,0.951,2.57,1.729,4.005,2.39c2.932,1.396,5.884,2.722,8.799,4.19c1.463,0.717,2.924,1.437,4.368,2.186l2.171,1.115
			l2.109,1.132c1.417,0.614,3,1.213,4.477,1.955c0.746,0.37,1.482,0.772,2.196,1.25c0.707,0.484,1.414,1.017,1.983,1.807
			c0.075,0.117,0.118,0.175,0.216,0.346l0.136,0.271c0.092,0.172,0.18,0.368,0.263,0.589c0.182,0.434,0.299,0.826,0.431,1.229
			c0.239,0.803,0.444,1.604,0.621,2.407c0.356,1.608,0.635,3.223,0.871,4.841c0.459,3.229,0.789,6.517,0.729,9.79
			c-0.028,3.264-0.122,6.5-0.193,9.745c-0.069,3.242-0.15,6.486-0.135,9.718c0.017,1.637,0.016,3.193,0.28,4.787l0.672,4.818
			c0.474,3.199,0.93,6.42,1.7,9.533c0.343,1.555,1.141,2.946,1.616,4.561c0.497,1.558,0.93,3.124,1.365,4.687
			c0.215,0.781,0.441,1.559,0.676,2.329l0.391,1.146c0.128,0.409,0.201,0.823,0.271,1.226c0.259,1.616,0.403,3.232,0.55,4.852
			l0.397,4.853l0.209,2.426c0.093,0.803,0.126,1.622,0.348,2.401c-0.248-0.773-0.307-1.594-0.426-2.394l-0.288-2.418l-0.553-4.836
			c-0.198-1.607-0.396-3.222-0.701-4.8c-0.083-0.395-0.165-0.779-0.291-1.142l-0.417-1.148c-0.252-0.776-0.494-1.556-0.724-2.333
			c-0.466-1.556-0.927-3.107-1.444-4.635c-0.272-0.748-0.537-1.494-0.88-2.236c-0.328-0.727-0.641-1.56-0.835-2.338
			c-0.847-3.176-1.368-6.384-1.893-9.593l-0.723-4.815c-0.124-0.78-0.24-1.65-0.268-2.465c-0.042-0.822-0.063-1.639-0.075-2.452
			c-0.049-3.259-0.001-6.503,0.034-9.749c0.036-3.244,0.097-6.494,0.09-9.723c0.024-3.22-0.324-6.407-0.808-9.597
			c-0.247-1.59-0.536-3.173-0.896-4.729c-0.378-1.546-0.76-3.139-1.482-4.321c-0.818-1.071-2.276-1.869-3.667-2.555
			c-1.434-0.701-2.897-1.232-4.464-1.893l-2.19-1.146l-2.164-1.096c-1.439-0.74-2.893-1.451-4.346-2.156
			c-2.886-1.444-5.857-2.771-8.791-4.154c-1.512-0.691-2.988-1.515-4.339-2.579c-1.308-1.081-2.641-2.392-3.103-4.327
			c-0.056-0.237-0.088-0.487-0.103-0.743c-0.006-0.3,0.002-0.369-0.016-0.599l-0.063-1.221l-0.094-2.449
			c-0.043-1.635-0.058-3.272,0.019-4.928c0.041-0.829,0.1-1.66,0.232-2.517c0.071-0.43,0.154-0.86,0.317-1.332
			c0.09-0.237,0.181-0.482,0.406-0.776c0.105-0.141,0.275-0.312,0.524-0.436c0.109-0.058,0.301-0.119,0.513-0.127l0.227,0.006
			c0.975,0.166,1.857-1.202,2.393-2.617l0.84-2.259c0.273-0.743,0.507-1.462,0.607-2.166l0.048-0.481
			c0.007-0.187-0.002-0.401-0.003-0.601c-0.009-0.271-0.073-0.607-0.183-0.899c-0.208-0.585-0.668-1.201-1.115-1.577l-0.021-0.017
			c-0.25-0.211-0.353-0.533-0.298-0.834c0.304-1.625,0.542-3.303,0.728-4.963c0.197-1.66,0.312-3.341,0.367-4.976
			c0.05-0.812-0.004-1.686,0-2.525c-0.007-0.765-0.133-1.511-0.356-2.257c-0.454-1.487-1.265-2.898-2.231-4.194
			c-0.971-1.298-2.106-2.489-3.339-3.568c-1.233-1.076-2.565-2.053-3.976-2.85c-1.395-0.808-2.877-1.34-4.463-1.6
			c-1.588-0.261-3.233-0.315-4.88-0.255c-3.287,0.135-6.635,0.692-9.836,1.47c-1.415,0.381-2.728,1.315-3.868,2.431
			c-1.146,1.122-2.15,2.431-3.063,3.804c-0.912,1.377-1.729,2.827-2.49,4.313l-0.562,1.124l-0.279,0.572
			c-0.085,0.176-0.223,0.445-0.229,0.482c-0.172,0.524-0.201,1.433-0.202,2.219c0.009,1.639,0.146,3.317,0.311,4.987
			c0.169,1.669,0.375,3.349,0.614,5.006c0.054,0.372-0.136,0.725-0.448,0.895l-0.038,0.021c-0.136,0.074-0.388,0.243-0.56,0.404
			c-0.095,0.08-0.178,0.178-0.267,0.264c-0.067,0.091-0.131,0.147-0.211,0.261c-0.205,0.312-0.261,0.39-0.338,0.621
			c-0.066,0.213-0.106,0.462-0.127,0.724c-0.07,1.066,0.167,2.271,0.468,3.432c0.311,1.17,0.712,2.326,1.156,3.483l0.171,0.452
			c0.035,0.096,0.026,0.039,0.03,0.071l0.062,0.083c0.111,0.136,0.312,0.306,0.535,0.455c0.441,0.303,0.988,0.587,1.497,0.808
			l0.008,0.003c0.287,0.125,0.472,0.39,0.51,0.679c0.298,2.287,0.665,4.608,1.487,6.652c0.206,0.509,0.452,0.98,0.739,1.426
			c0.145,0.227,0.303,0.437,0.484,0.68c0.182,0.271,0.391,0.474,0.591,1.026c0.032,0.098,0.041,0.149,0.062,0.228l0.014,0.054
			c-0.001-0.008,0.032,0.151,0.02,0.104l0.005,0.036l0.015,0.149c0.024,0.212,0.017,0.377,0.013,0.548
			c-0.011,0.34-0.042,0.654-0.084,0.962c-0.081,0.619-0.191,1.214-0.318,1.807c-0.253,1.182-0.56,2.339-0.922,3.49
			c-0.188,0.585-0.367,1.134-0.626,1.749c-0.062,0.157-0.122,0.274-0.184,0.413l-0.023,0.05l-0.011,0.025
			c-0.042,0.142-0.292,0.361-0.326,0.367l-0.168,0.093l-0.22,0.106l-0.821,0.369l-6.504,2.791l-6.51,2.75l-3.257,1.37
			c-1.118,0.463-2.098,0.884-3.054,1.496c-0.954,0.613-1.982,1.305-3.06,1.869c-0.546,0.271-1.102,0.572-1.635,0.794
			c-0.514,0.235-1.151,0.486-1.485,0.704c-0.793,0.515-1.424,1.461-1.928,2.439c-0.511,0.99-0.909,2.067-1.254,3.165
			c-0.689,2.197-1.164,4.485-1.57,6.786c-0.203,1.151-0.381,2.311-0.561,3.475c-0.091,0.582-0.178,1.167-0.292,1.77
			c-0.097,0.587-0.18,1.115-0.248,1.692c-0.247,2.306-0.338,4.661-0.432,7.001c-0.04,1.173-0.065,2.345-0.074,3.516
			c-0.018,1.18,0.016,2.224,0.1,3.528c-0.073,2.425-0.331,4.738-0.545,7.097l-0.723,7.033l-0.369,3.501
			c-0.035,0.277-0.042,0.562-0.087,0.868c-0.038,0.345-0.088,0.634-0.137,0.923l-0.298,1.747l-1.269,6.956
			c-0.01,0.057-0.033,0.112-0.062,0.159c-0.551,0.862-0.988,1.841-1.385,2.827c-0.394,0.991-0.743,2.007-1.071,3.029
			c-0.649,2.048-1.213,4.13-1.733,6.222C105.657,367.611,104.766,371.839,104,376.09z"/>
	</g>
</g>
<g>
	
		<path fill="none" stroke="#CBDB2B" stroke-width="2.7858" stroke-linecap="round" stroke-linejoin="round" stroke-miterlimit="10" d="
		M301.816,239.317c0,0-10.509,1.773-11.143,11.774c-0.633,10.005,11.775,11.65,14.562,10.511c0,0-7.496-5.354-8.356-10.002
		C296.245,248.182,297.258,244.13,301.816,239.317z"/>
	<g>
		<path fill="#CBDB2B" d="M278.307,375.093c0.267-2.484,0.52-4.972,0.856-7.441l0.476-3.712l0.236-1.856l0.119-0.928l0.065-0.485
			l0.092-0.471c0.503-2.478,1.103-4.921,1.823-7.355c0.735-2.434,1.563-4.849,2.896-7.201l-0.176,0.475l1.014-6.589l0.235-1.635
			l0.089-0.688c0.033-0.24,0.035-0.545,0.066-0.864l0.276-3.362l0.532-6.645l0.23-3.312c0.063-1.086,0.138-2.229,0.135-3.208
			c-0.071-0.757-0.148-2.231-0.146-3.341c-0.011-1.133-0.006-2.261,0.012-3.386c0.047-2.262,0.087-4.485,0.281-6.806
			c0.053-0.576,0.146-1.266,0.224-1.812l0.239-1.605c0.161-1.108,0.335-2.237,0.545-3.369c0.429-2.266,0.941-4.548,1.937-6.859
			c0.515-1.149,1.14-2.34,2.256-3.444c0.29-0.271,0.604-0.532,0.968-0.769c0.353-0.229,0.839-0.455,1.024-0.535
			c0.485-0.222,1.076-0.475,1.597-0.688c2.13-0.877,4.258-1.554,5.959-2.455c0.417-0.23,0.823-0.465,1.18-0.729
			c0.188-0.124,0.349-0.269,0.521-0.402l0.032-0.024l0.171-0.131l0.112-0.073l0.24-0.137l0.204-0.106l0.379-0.196l2.962-1.527
			c1.963-1.021,3.917-2.059,5.835-3.123c0.958-0.533,1.908-1.073,2.834-1.627c0.913-0.549,1.851-1.131,2.575-1.685
			c0.173-0.13,0.338-0.274,0.381-0.322c0.015,0.004,0.016-0.068-0.172,0.28l0.137-0.321c0.119-0.312,0.303-0.869,0.44-1.338
			c0.289-0.989,0.546-2.024,0.745-3.039c0.103-0.508,0.187-1.013,0.243-1.479c0.031-0.236,0.048-0.455,0.056-0.635
			c-0.004-0.05,0.01-0.203-0.001-0.169h0.001l0.002-0.001h0.002c0.017,0.079-0.034-0.179,0.037,0.178l-0.051-0.202
			c-0.014-0.063-0.007-0.006,0.002,0.034s0.021,0.078,0.036,0.115c0.051,0.104,0.031,0.068,0.028,0.066
			c0.012,0.011-0.067-0.099-0.116-0.171c-0.148-0.21-0.353-0.482-0.541-0.791c-0.38-0.604-0.7-1.251-0.939-1.867
			c-0.494-1.242-0.78-2.433-1.021-3.606c-0.245-1.177-0.401-2.33-0.551-3.484l1.377,1.864c-0.392-0.175-0.664-0.316-0.994-0.5
			c-0.319-0.18-0.64-0.377-0.982-0.627c-0.343-0.264-0.706-0.531-1.141-1.111c-0.114-0.17-0.21-0.294-0.327-0.547
			c-0.054-0.114-0.104-0.23-0.146-0.349l-0.035-0.099l-0.141-0.381c-0.418-1.137-0.816-2.327-1.136-3.573
			c-0.302-1.269-0.597-2.543-0.521-4.199c0.029-0.423,0.081-0.867,0.229-1.377c0.079-0.257,0.169-0.52,0.31-0.798l0.05-0.104
			l0.104-0.184l0.058-0.095l0.113-0.188c0.021-0.039,0.122-0.185,0.201-0.292l0.257-0.337c0.166-0.192,0.314-0.354,0.485-0.521
			c0.171-0.16,0.346-0.315,0.54-0.462c0.216-0.159,0.342-0.26,0.73-0.472l-1.287,2.466c-0.421-3.073-0.786-6.057-0.904-9.268
			c-0.014-0.823-0.035-1.614,0.08-2.617c0.014-0.123,0.031-0.254,0.059-0.403c0.024-0.139,0.049-0.281,0.101-0.466l0.071-0.262
			l0.128-0.343l0.089-0.204l0.059-0.129l0.423-0.98c0.609-1.42,1.289-2.884,2.104-4.306c0.817-1.423,1.761-2.83,2.997-4.133
			c1.229-1.281,2.829-2.517,4.889-3.094c1.557-0.417,3.084-0.742,4.653-1.004c1.57-0.259,3.18-0.446,4.837-0.489
			c1.653-0.046,3.371,0.063,5.11,0.47c0.874,0.19,1.728,0.491,2.605,0.868c0.306,0.14,0.773,0.362,1.125,0.551
			c0.374,0.192,0.736,0.397,1.096,0.607c1.432,0.846,2.771,1.812,4.024,2.909c1.252,1.102,2.421,2.338,3.421,3.78
			c0.991,1.438,1.825,3.111,2.191,5.012c0.201,0.93,0.198,2.027,0.194,2.679l0.006,1.129l-0.049,1.218
			c-0.024,0.821-0.083,1.605-0.15,2.379c-0.054,0.779-0.146,1.552-0.229,2.322c-0.186,1.555-0.39,3.054-0.68,4.637l-0.812-2.227
			c0.365,0.316,0.498,0.476,0.713,0.721c0.19,0.229,0.369,0.463,0.53,0.715c0.326,0.498,0.598,1.055,0.784,1.662
			c0.093,0.304,0.163,0.618,0.211,0.938l0.026,0.242l0.014,0.121l0.005,0.061l0.01,0.183l0.003,0.3
			c0.02,0.271-0.036,1.148-0.129,1.599c-0.177,1.033-0.493,1.922-0.768,2.689l-0.396,1.107c-0.126,0.365-0.294,0.833-0.473,1.255
			c-0.386,0.864-0.787,1.818-1.838,2.82c-0.521,0.485-1.329,0.969-2.255,1.098c-0.229,0.034-0.457,0.055-0.675,0.041l-0.329-0.018
			l-0.082-0.007c-0.093-0.007,0.472,0.031,0.217,0.015h-0.037c-0.056-0.002,0.021,0.004,0.157-0.003
			c0.196-0.003,0.487-0.093,0.581-0.132c0.105-0.039,0.217-0.098,0.303-0.154c0.149-0.09,0.271-0.204,0.331-0.267
			c0.14-0.155,0.164-0.216,0.18-0.241c0.021-0.065-0.096,0.25-0.147,0.53c-0.064,0.301-0.12,0.643-0.166,0.997
			c-0.093,0.711-0.153,1.467-0.199,2.229c-0.09,1.528-0.119,3.096-0.123,4.662l0.018,2.356c0.002,0.381,0.022,0.803,0.016,1.192
			c-0.001,0.188,0.038,0.417,0.102,0.651c0.258,0.948,0.967,1.973,1.968,2.819c0.496,0.428,1.042,0.837,1.646,1.193
			c0.297,0.186,0.595,0.369,0.921,0.526l1.013,0.522l2.145,1.072l2.172,1.152c1.438,0.783,2.849,1.56,4.236,2.396
			c1.395,0.82,2.77,1.666,4.138,2.523l2.032,1.288c0.233,0.149,0.151,0.101,0.268,0.156l0.48,0.203l1.099,0.436
			c1.504,0.593,3.038,1.218,4.569,2.002c0.767,0.397,1.534,0.829,2.316,1.403c0.391,0.288,0.787,0.62,1.188,1.065
			c0.197,0.224,0.398,0.487,0.584,0.807l0.308,0.594c0.791,1.657,1.316,3.16,1.829,4.769c0.489,1.593,0.899,3.206,1.203,4.862
			c0.146,0.829,0.271,1.667,0.349,2.523c0.087,0.837,0.104,1.775,0.104,2.536l0.019,4.803l0.057,9.571
			c0.068,3.179,0.021,6.394,0.371,9.435c0.304,3.268,0.5,6.401,0.81,9.559c0.163,1.562,0.341,3.145,0.659,4.596
			c0.085,0.356,0.175,0.702,0.282,0.986l0.431,1.12c0.287,0.746,0.585,1.48,0.849,2.256c0.553,1.534,1.073,3.052,1.584,4.565
			l0.771,2.259c0.254,0.831,0.372,1.731,0.49,2.51c0.87,6.383,1.421,12.737,1.924,19.122l-0.277,0.033l-1.222-9.506
			c-0.433-3.165-0.86-6.333-1.405-9.477c-0.146-0.786-0.269-1.56-0.514-2.308l-0.823-2.253c-0.543-1.503-1.094-3.002-1.663-4.489
			c-0.271-0.748-0.587-1.483-0.891-2.223c-0.295-0.729-0.643-1.479-0.821-2.274c-0.38-1.569-0.588-3.159-0.789-4.746
			c-0.392-3.176-0.625-6.371-0.962-9.537c-0.407-3.189-0.396-6.394-0.509-9.587l-0.183-9.586l-0.082-4.791
			c-0.009-1.596-0.168-3.166-0.479-4.728c-0.628-3.107-1.592-6.184-2.954-9.031c-0.191-0.367-0.347-0.696-0.609-0.968
			c-0.254-0.279-0.552-0.53-0.868-0.758c-0.635-0.456-1.326-0.841-2.034-1.195c-1.42-0.706-2.902-1.29-4.395-1.855
			c-0.742-0.307-1.505-0.508-2.238-0.952l-2.04-1.256c-1.362-0.83-2.732-1.648-4.118-2.439c-2.773-1.586-5.562-3.115-8.447-4.498
			c-1.438-0.699-2.868-1.498-4.102-2.562c-1.232-1.046-2.285-2.401-2.74-4.009c-0.11-0.399-0.186-0.813-0.191-1.235
			c0.006-0.4-0.016-0.797-0.021-1.198l-0.029-2.4c-0.003-1.601,0.019-3.201,0.104-4.805c0.044-0.802,0.104-1.604,0.204-2.404
			c0.116-0.802,0.2-1.603,0.582-2.403c0.119-0.187,0.223-0.438,0.615-0.521c0.062-0.011,0.063-0.004,0.095-0.005l0.098,0.003
			l0.131,0.004c0.088,0.012,0.174-0.001,0.258-0.016c0.341-0.048,0.657-0.224,0.925-0.471c0.539-0.5,0.898-1.215,1.198-1.932
			c0.299-0.719,0.533-1.492,0.811-2.241c0.267-0.751,0.52-1.496,0.645-2.26c0.108-0.742,0.157-1.562-0.07-2.259
			c-0.219-0.71-0.67-1.379-1.212-1.866l-0.112-0.101l0.025-0.14c0.263-1.472,0.461-2.964,0.63-4.452
			c0.16-1.49,0.299-2.991,0.344-4.481c0.041-0.743,0.053-1.493,0.032-2.248c-0.004-0.763-0.002-1.483-0.156-2.201
			c-0.281-1.436-0.941-2.786-1.786-3.996c-1.712-2.421-4.068-4.36-6.625-5.874c-1.29-0.749-2.631-1.399-4.072-1.705
			c-1.438-0.33-2.933-0.428-4.419-0.379c-2.979,0.1-5.942,0.688-8.836,1.422c-1.396,0.382-2.618,1.27-3.637,2.325
			c-1.021,1.064-1.868,2.3-2.614,3.588c-0.747,1.292-1.387,2.646-1.984,4.021l-0.456,1.04c-0.175,0.34-0.229,0.622-0.28,1.002
			c-0.088,0.72-0.083,1.472-0.069,2.216c0.094,2.989,0.439,5.986,0.834,8.961l0.022,0.176l-0.163,0.093
			c-0.212,0.118-0.443,0.296-0.638,0.48c-0.202,0.196-0.367,0.394-0.521,0.621c-0.167,0.261-0.277,0.456-0.354,0.724
			c-0.077,0.257-0.112,0.532-0.132,0.81c-0.063,1.121,0.16,2.272,0.432,3.393c0.282,1.124,0.646,2.229,1.042,3.325
			c0.109,0.275,0.183,0.579,0.312,0.743c0.146,0.2,0.356,0.383,0.579,0.548c0.448,0.329,0.962,0.609,1.473,0.845l0.13,0.061
			l0.019,0.141c0.273,2.191,0.599,4.408,1.378,6.452c0.194,0.51,0.438,0.994,0.722,1.453c0.268,0.474,0.671,0.838,0.896,1.49
			c0.153,0.61,0.06,1.188,0,1.747c-0.071,0.561-0.169,1.113-0.28,1.662c-0.224,1.101-0.497,2.187-0.817,3.262
			c-0.165,0.538-0.333,1.065-0.548,1.604l-0.168,0.391c-0.088,0.176-0.192,0.283-0.297,0.395c-0.212,0.215-0.436,0.395-0.66,0.566
			c-1.829,1.333-3.787,2.395-5.734,3.482c-1.955,1.073-3.929,2.107-5.91,3.126l-2.976,1.52c-0.228,0.12-0.54,0.265-0.691,0.368
			c-0.224,0.175-0.44,0.359-0.678,0.517c-0.46,0.335-0.953,0.615-1.449,0.885c-2.01,1.038-4.147,1.697-6.205,2.525
			c-0.517,0.204-1.022,0.413-1.534,0.639c-0.518,0.209-0.947,0.473-1.34,0.848c-0.771,0.741-1.328,1.706-1.78,2.701
			c-0.896,2.01-1.43,4.178-1.865,6.349c-0.216,1.088-0.398,2.184-0.573,3.281c-0.171,1.103-0.379,2.204-0.491,3.29
			c-0.214,2.206-0.286,4.435-0.36,6.654c-0.032,1.111-0.051,2.223-0.056,3.334c-0.011,1.114,0.027,2.186,0.103,3.337
			c-0.055,2.248-0.278,4.457-0.46,6.68l-0.622,6.651c-0.232,2.204-0.359,4.447-0.77,6.645l-1.103,6.591l-0.005,0.03l-0.019,0.03
			c-1.239,2.134-2.1,4.481-2.869,6.838c-0.755,2.367-1.398,4.771-1.944,7.195c-0.256,1.208-0.472,2.441-0.71,3.662l-0.699,3.67
			l-1.397,7.339L278.307,375.093z"/>
	</g>
	
		<path fill="none" stroke="#CBDB2B" stroke-width="2.7858" stroke-linecap="round" stroke-linejoin="round" stroke-miterlimit="10" d="
		M382.011,241.296c-0.354,0.549-0.444,2.671,1.208,2.798c1.653,0.127,1.78-0.317,2.1-1.781
		C385.55,241.252,383.284,239.323,382.011,241.296z"/>
	
		<path fill="none" stroke="#CBDB2B" stroke-width="2.7858" stroke-linecap="round" stroke-linejoin="round" stroke-miterlimit="10" d="
		M291.395,274.027c-0.354,0.552-0.444,2.674,1.208,2.8c1.653,0.128,1.78-0.317,2.1-1.78
		C294.934,273.984,292.668,272.057,291.395,274.027z"/>
	
		<path fill="none" stroke="#CBDB2B" stroke-width="2.7858" stroke-linecap="round" stroke-linejoin="round" stroke-miterlimit="10" d="
		M311.411,271.501c-0.177,0.275-0.223,1.336,0.604,1.399c0.826,0.063,0.891-0.159,1.049-0.89
		C313.18,271.479,312.047,270.517,311.411,271.501z"/>
	
		<path fill="none" stroke="#CBDB2B" stroke-width="2.7858" stroke-linecap="round" stroke-linejoin="round" stroke-miterlimit="10" d="
		M288.919,230.076c-0.354,0.549-0.444,2.669,1.208,2.799c1.654,0.126,1.781-0.32,2.101-1.782
		C292.458,230.03,290.192,228.104,288.919,230.076z"/>
	
		<path fill="none" stroke="#CBDB2B" stroke-width="2.7858" stroke-linecap="round" stroke-linejoin="round" stroke-miterlimit="10" d="
		M369.396,259.017c-0.354,0.55-0.444,2.67,1.21,2.799c1.652,0.126,1.78-0.319,2.099-1.781
		C372.936,258.971,370.67,257.045,369.396,259.017z"/>
	
		<path fill="none" stroke="#CBDB2B" stroke-width="2.7858" stroke-linecap="round" stroke-linejoin="round" stroke-miterlimit="10" d="
		M368.843,237.884c0.525-0.391,1.361-2.341-0.141-3.045s-1.779-0.332-2.594,0.923C365.518,236.675,366.955,239.276,368.843,237.884z
		"/>
	
		<path fill="none" stroke="#CBDB2B" stroke-width="2.7858" stroke-linecap="round" stroke-linejoin="round" stroke-miterlimit="10" d="
		M362.722,267.96c0.315-0.234,0.817-1.407-0.083-1.833c-0.903-0.422-1.07-0.198-1.561,0.557
		C360.724,267.232,361.589,268.798,362.722,267.96z"/>
	
		<path fill="none" stroke="#CBDB2B" stroke-width="2.7858" stroke-linecap="round" stroke-linejoin="round" stroke-miterlimit="10" d="
		M381.666,276.075c0.315-0.233,0.817-1.406-0.085-1.832c-0.902-0.423-1.069-0.199-1.56,0.557
		C379.665,275.349,380.531,276.913,381.666,276.075z"/>
	<g>
		
			<path fill="none" stroke="#00B258" stroke-width="1.8572" stroke-linecap="round" stroke-linejoin="round" stroke-miterlimit="10" d="
			M382.279,242.447c-0.294,0.453-0.369,2.212,0.999,2.315c1.369,0.105,1.475-0.263,1.738-1.474
			C385.208,242.408,383.331,240.814,382.279,242.447z"/>
		
			<path fill="none" stroke="#00B258" stroke-width="1.8572" stroke-linecap="round" stroke-linejoin="round" stroke-miterlimit="10" d="
			M291.664,275.179c-0.293,0.455-0.369,2.212,1,2.317c1.37,0.104,1.476-0.264,1.738-1.476
			C294.593,275.142,292.716,273.547,291.664,275.179z"/>
		
			<path fill="none" stroke="#00B258" stroke-width="1.8572" stroke-linecap="round" stroke-linejoin="round" stroke-miterlimit="10" d="
			M311.545,272.077c-0.146,0.229-0.185,1.104,0.5,1.157c0.686,0.054,0.737-0.133,0.869-0.735
			C313.01,272.059,312.071,271.261,311.545,272.077z"/>
		
			<path fill="none" stroke="#00B258" stroke-width="1.8572" stroke-linecap="round" stroke-linejoin="round" stroke-miterlimit="10" d="
			M289.188,231.226c-0.293,0.455-0.369,2.211,1,2.317c1.369,0.105,1.475-0.265,1.737-1.475
			C292.117,231.189,290.24,229.593,289.188,231.226z"/>
		
			<path fill="none" stroke="#00B258" stroke-width="1.8572" stroke-linecap="round" stroke-linejoin="round" stroke-miterlimit="10" d="
			M369.665,260.166c-0.293,0.455-0.368,2.211,1.001,2.316c1.37,0.106,1.476-0.264,1.738-1.474
			C372.594,260.13,370.719,258.533,369.665,260.166z"/>
		
			<path fill="none" stroke="#00B258" stroke-width="1.8572" stroke-linecap="round" stroke-linejoin="round" stroke-miterlimit="10" d="
			M368.999,236.712c0.436-0.32,1.127-1.938-0.117-2.521c-1.241-0.583-1.472-0.275-2.146,0.766
			C366.247,235.711,367.436,237.865,368.999,236.712z"/>
		
			<path fill="none" stroke="#00B258" stroke-width="1.8572" stroke-linecap="round" stroke-linejoin="round" stroke-miterlimit="10" d="
			M362.817,267.254c0.261-0.191,0.677-1.164-0.069-1.516c-0.749-0.35-0.887-0.165-1.291,0.459
			C361.161,266.653,361.877,267.948,362.817,267.254z"/>
		
			<path fill="none" stroke="#00B258" stroke-width="1.8572" stroke-linecap="round" stroke-linejoin="round" stroke-miterlimit="10" d="
			M381.759,275.37c0.264-0.191,0.68-1.164-0.068-1.516c-0.747-0.351-0.885-0.165-1.291,0.459
			C380.104,274.77,380.821,276.064,381.759,275.37z"/>
		
			<path fill="none" stroke="#00B258" stroke-width="1.8572" stroke-linecap="round" stroke-linejoin="round" stroke-miterlimit="10" d="
			M300.803,239.317c0,0-10.51,1.773-11.143,11.774c-0.633,10.005,11.775,11.65,14.562,10.511c0,0-7.495-5.354-8.356-10.002
			C295.232,248.182,296.245,244.13,300.803,239.317z"/>
	</g>
	<g>
		<path fill="#00B258" d="M275.625,376.09c0.619-4.275,1.365-8.533,2.257-12.767c0.45-2.115,0.943-4.224,1.528-6.313
			c0.295-1.044,0.613-2.084,0.982-3.113c0.374-1.028,0.782-2.049,1.361-3.028l-0.062,0.159l1.183-6.961l0.279-1.737
			c0.047-0.292,0.091-0.584,0.118-0.824c0.041-0.277,0.045-0.582,0.08-0.891l0.337-3.528l0.653-7.029
			c0.191-2.334,0.427-4.709,0.473-6.994c-0.082-1.046-0.143-2.354-0.133-3.531c-0.003-1.185,0.012-2.367,0.042-3.549
			c0.07-2.366,0.138-4.721,0.368-7.104c0.063-0.593,0.159-1.229,0.247-1.805c0.101-0.557,0.182-1.138,0.267-1.72
			c0.168-1.165,0.337-2.337,0.532-3.506c0.39-2.34,0.85-4.68,1.548-6.984c0.353-1.15,0.759-2.297,1.316-3.406
			c0.565-1.094,1.234-2.227,2.415-3.033c0.661-0.412,1.14-0.57,1.689-0.836c0.552-0.237,1.025-0.509,1.535-0.765
			c1.003-0.542,1.928-1.174,2.954-1.835c1.023-0.667,2.217-1.185,3.272-1.621l3.252-1.38l6.498-2.769l6.473-2.801l0.788-0.357
			l0.178-0.086c0.023-0.013,0.048-0.026,0.025-0.013c-0.028,0-0.258,0.217-0.283,0.332l0.012-0.025l0.022-0.05
			c0.058-0.131,0.13-0.276,0.174-0.395c0.195-0.472,0.388-1.042,0.557-1.579c0.342-1.096,0.635-2.219,0.87-3.341
			c0.119-0.561,0.223-1.124,0.292-1.674c0.062-0.561,0.126-1.08,0-1.421c-0.017-0.014-0.024-0.026-0.029-0.045l-0.074-0.121
			c-0.057-0.092-0.137-0.196-0.221-0.311c-0.172-0.229-0.369-0.487-0.543-0.758c-0.354-0.542-0.654-1.119-0.893-1.701
			c-0.939-2.337-1.301-4.723-1.622-7.09l0.518,0.681c-0.642-0.278-1.216-0.571-1.813-0.972c-0.295-0.204-0.591-0.428-0.884-0.771
			c-0.074-0.091-0.146-0.196-0.214-0.3c-0.06-0.11-0.148-0.305-0.166-0.355l-0.163-0.428c-0.458-1.183-0.887-2.398-1.224-3.653
			c-0.322-1.263-0.613-2.551-0.531-3.998c0.028-0.363,0.082-0.737,0.202-1.126c0.102-0.376,0.387-0.829,0.532-1.037
			c0.1-0.146,0.247-0.321,0.374-0.478c0.133-0.135,0.259-0.274,0.4-0.397c0.293-0.261,0.554-0.461,0.972-0.683l-0.486,0.915
			c-0.25-1.698-0.461-3.384-0.639-5.086c-0.171-1.703-0.32-3.407-0.335-5.159c-0.004-0.438,0.008-0.883,0.038-1.338
			c0.038-0.462,0.069-0.911,0.259-1.482c0.14-0.361,0.212-0.463,0.307-0.67l0.277-0.57l0.57-1.152
			c0.777-1.533,1.623-3.044,2.579-4.497c0.958-1.45,2.021-2.854,3.295-4.108c1.271-1.239,2.787-2.381,4.663-2.899
			c1.696-0.428,3.374-0.76,5.078-1.031c1.703-0.267,3.425-0.461,5.165-0.521c1.739-0.061,3.499,0,5.258,0.294
			c1.762,0.29,3.517,0.924,5.054,1.825c1.539,0.877,2.951,1.922,4.269,3.075c1.313,1.157,2.526,2.437,3.584,3.855
			c1.05,1.421,1.961,2.99,2.495,4.754c0.264,0.876,0.421,1.818,0.425,2.748c-0.006,0.855,0.045,1.68-0.007,2.56
			c-0.062,1.754-0.187,3.458-0.395,5.162c-0.195,1.708-0.439,3.391-0.764,5.098l-0.317-0.852c0.788,0.673,1.311,1.414,1.671,2.35
			c0.169,0.47,0.27,0.938,0.286,1.476c0,0.207,0.009,0.396,0.001,0.617l-0.066,0.729c-0.134,0.904-0.416,1.736-0.702,2.514
			l-0.863,2.301c-0.32,0.789-0.69,1.596-1.3,2.349c-0.309,0.371-0.689,0.733-1.184,0.993c-0.487,0.26-1.095,0.393-1.644,0.325
			l-0.053-0.003c-0.096-0.006,0.071,0.005,0.041,0.004h-0.066c0.111,0.008,0.206-0.031,0.224-0.041
			c0.069-0.031,0.082-0.066,0.067-0.043c-0.026,0.026-0.097,0.161-0.146,0.302c-0.104,0.296-0.184,0.662-0.244,1.032
			c-0.119,0.748-0.181,1.538-0.221,2.329c-0.077,1.586-0.068,3.195-0.03,4.804l0.085,2.415l0.061,1.21
			c0.017,0.177,0.015,0.512,0.015,0.617c0.009,0.149,0.028,0.304,0.063,0.46c0.275,1.284,1.347,2.459,2.513,3.405
			c1.195,0.95,2.57,1.729,4.004,2.39c2.932,1.395,5.885,2.721,8.799,4.189c1.464,0.716,2.924,1.437,4.368,2.185l2.172,1.116
			l2.11,1.132c1.417,0.614,3,1.213,4.476,1.954c0.746,0.37,1.483,0.772,2.196,1.251c0.707,0.484,1.414,1.017,1.982,1.807
			c0.075,0.117,0.119,0.176,0.218,0.346l0.136,0.271c0.092,0.172,0.18,0.368,0.262,0.589c0.184,0.433,0.3,0.826,0.433,1.229
			c0.238,0.802,0.443,1.604,0.621,2.408c0.354,1.606,0.635,3.221,0.869,4.84c0.459,3.228,0.788,6.517,0.729,9.79
			c-0.027,3.263-0.121,6.5-0.191,9.745c-0.068,3.242-0.149,6.486-0.136,9.719c0.018,1.636,0.016,3.192,0.28,4.786l0.672,4.818
			c0.474,3.199,0.93,6.42,1.701,9.533c0.341,1.555,1.14,2.947,1.614,4.561c0.497,1.558,0.931,3.124,1.366,4.687
			c0.215,0.782,0.44,1.559,0.676,2.329l0.391,1.146c0.129,0.409,0.202,0.823,0.271,1.225c0.26,1.617,0.403,3.233,0.551,4.853
			l0.396,4.853l0.21,2.425c0.093,0.804,0.126,1.623,0.348,2.402c-0.248-0.773-0.307-1.594-0.426-2.394l-0.287-2.418l-0.554-4.836
			c-0.198-1.607-0.396-3.222-0.701-4.799c-0.082-0.396-0.164-0.78-0.29-1.143l-0.417-1.148c-0.253-0.776-0.495-1.556-0.725-2.332
			c-0.466-1.557-0.926-3.108-1.445-4.636c-0.271-0.748-0.537-1.493-0.88-2.236c-0.327-0.727-0.639-1.56-0.835-2.338
			c-0.846-3.176-1.367-6.384-1.892-9.593l-0.725-4.815c-0.123-0.78-0.239-1.65-0.267-2.465c-0.042-0.822-0.063-1.639-0.075-2.452
			c-0.048-3.258-0.001-6.503,0.034-9.749c0.036-3.244,0.096-6.494,0.089-9.723c0.025-3.22-0.322-6.407-0.806-9.597
			c-0.247-1.59-0.537-3.174-0.897-4.729c-0.377-1.547-0.76-3.138-1.481-4.321c-0.819-1.071-2.276-1.869-3.667-2.556
			c-1.436-0.7-2.898-1.232-4.466-1.893l-2.189-1.145l-2.164-1.096c-1.44-0.74-2.893-1.451-4.346-2.157
			c-2.887-1.443-5.857-2.77-8.791-4.152c-1.513-0.691-2.988-1.515-4.34-2.58c-1.308-1.081-2.64-2.392-3.102-4.327
			c-0.055-0.237-0.089-0.487-0.103-0.742c-0.007-0.301,0.002-0.37-0.017-0.6l-0.063-1.221l-0.094-2.449
			c-0.044-1.635-0.058-3.271,0.019-4.928c0.04-0.829,0.099-1.66,0.231-2.517c0.071-0.43,0.154-0.86,0.317-1.331
			c0.09-0.238,0.181-0.483,0.406-0.777c0.104-0.141,0.274-0.312,0.523-0.436c0.109-0.058,0.302-0.118,0.515-0.127l0.226,0.007
			c0.977,0.165,1.858-1.203,2.395-2.618l0.84-2.259c0.272-0.743,0.506-1.461,0.606-2.165l0.048-0.482
			c0.008-0.185-0.003-0.4-0.004-0.6c-0.009-0.271-0.071-0.608-0.183-0.9c-0.208-0.585-0.669-1.201-1.115-1.577l-0.021-0.017
			c-0.251-0.212-0.354-0.533-0.298-0.834c0.304-1.625,0.542-3.303,0.727-4.962c0.198-1.661,0.312-3.343,0.367-4.977
			c0.05-0.812-0.003-1.686,0-2.524c-0.006-0.766-0.133-1.512-0.356-2.258c-0.454-1.487-1.266-2.898-2.23-4.194
			c-0.972-1.297-2.106-2.489-3.339-3.568c-1.234-1.076-2.566-2.053-3.977-2.85c-1.395-0.808-2.878-1.339-4.463-1.601
			c-1.589-0.26-3.233-0.314-4.88-0.254c-3.287,0.135-6.635,0.692-9.836,1.47c-1.416,0.382-2.729,1.315-3.868,2.431
			c-1.146,1.122-2.15,2.431-3.062,3.804c-0.911,1.377-1.73,2.827-2.49,4.314l-0.562,1.124l-0.278,0.571
			c-0.085,0.177-0.224,0.445-0.23,0.482c-0.172,0.524-0.201,1.433-0.202,2.219c0.009,1.639,0.147,3.317,0.312,4.987
			c0.169,1.669,0.375,3.349,0.613,5.006c0.055,0.372-0.136,0.725-0.447,0.895l-0.038,0.021c-0.136,0.074-0.39,0.242-0.561,0.404
			c-0.095,0.081-0.178,0.178-0.267,0.263c-0.067,0.092-0.13,0.149-0.211,0.261c-0.205,0.312-0.261,0.392-0.338,0.622
			c-0.066,0.213-0.107,0.462-0.127,0.725c-0.071,1.065,0.167,2.271,0.467,3.431c0.311,1.171,0.713,2.326,1.157,3.483l0.171,0.452
			c0.036,0.099,0.025,0.039,0.03,0.072l0.061,0.082c0.112,0.136,0.312,0.306,0.535,0.455c0.441,0.303,0.989,0.587,1.498,0.808
			l0.007,0.003c0.287,0.125,0.472,0.39,0.51,0.68c0.298,2.287,0.665,4.607,1.486,6.651c0.206,0.511,0.452,0.98,0.74,1.427
			c0.144,0.226,0.303,0.436,0.483,0.679c0.183,0.27,0.392,0.474,0.591,1.025c0.032,0.098,0.041,0.149,0.063,0.228l0.014,0.054
			c-0.001-0.008,0.033,0.153,0.021,0.104l0.004,0.037l0.015,0.148c0.024,0.212,0.018,0.377,0.014,0.548
			c-0.012,0.34-0.044,0.653-0.086,0.962c-0.079,0.619-0.191,1.214-0.317,1.806c-0.253,1.182-0.56,2.339-0.921,3.491
			c-0.188,0.586-0.368,1.133-0.626,1.748c-0.062,0.157-0.122,0.274-0.185,0.414l-0.022,0.051l-0.011,0.024
			c-0.037,0.129-0.281,0.356-0.325,0.366l-0.168,0.093l-0.222,0.106l-0.82,0.37l-6.504,2.792l-6.511,2.75l-3.257,1.369
			c-1.118,0.463-2.097,0.883-3.054,1.496c-0.954,0.613-1.982,1.304-3.061,1.869c-0.545,0.271-1.101,0.571-1.635,0.794
			c-0.514,0.235-1.149,0.486-1.483,0.704c-0.793,0.516-1.425,1.461-1.929,2.439c-0.511,0.99-0.909,2.067-1.254,3.165
			c-0.688,2.197-1.165,4.485-1.57,6.787c-0.202,1.15-0.381,2.31-0.561,3.474c-0.091,0.582-0.177,1.167-0.291,1.769
			c-0.096,0.589-0.179,1.116-0.248,1.693c-0.247,2.305-0.338,4.662-0.431,7.001c-0.041,1.173-0.067,2.345-0.075,3.516
			c-0.017,1.18,0.016,2.225,0.099,3.527c-0.071,2.426-0.331,4.74-0.545,7.098l-0.723,7.033l-0.369,3.501
			c-0.035,0.277-0.042,0.562-0.087,0.868c-0.038,0.345-0.088,0.634-0.136,0.923l-0.298,1.747l-1.27,6.956
			c-0.01,0.057-0.033,0.113-0.062,0.159c-0.553,0.862-0.989,1.841-1.386,2.828c-0.395,0.99-0.744,2.006-1.07,3.028
			c-0.65,2.048-1.214,4.13-1.734,6.223C277.282,367.611,276.391,371.839,275.625,376.09z"/>
	</g>
</g>
<g>
	<path fill="none" stroke="#CBDB2B" stroke-width="2.7858" stroke-miterlimit="10" d="M502.441,314.074
		c-1.04,1.616-1.308,7.853,3.553,8.229c4.861,0.373,5.234-0.938,6.168-5.234C512.844,313.947,506.182,308.28,502.441,314.074z"/>
	
		<path fill="none" stroke="#00B258" stroke-width="1.8572" stroke-linecap="round" stroke-linejoin="round" stroke-miterlimit="10" d="
		M503.23,314.729c-0.863,1.337-1.084,6.5,2.94,6.811c4.022,0.311,4.335-0.774,5.106-4.333
		C511.841,314.621,506.327,309.932,503.23,314.729z"/>
	
		<path fill="none" stroke="#00B258" stroke-width="1.8572" stroke-linecap="round" stroke-linejoin="round" stroke-miterlimit="10" d="
		M504.312,357.509c-0.616,0.954-0.774,4.641,2.101,4.863s3.096-0.553,3.647-3.096C510.463,357.433,506.522,354.08,504.312,357.509z"
		/>
	<path fill="none" stroke="#CCDC2C" stroke-width="0.9286" stroke-miterlimit="10" d="M504.777,357.896
		c-0.509,0.791-0.642,3.843,1.739,4.026c2.38,0.184,2.562-0.457,3.021-2.563C509.868,357.83,506.607,355.057,504.777,357.896z"/>
	<g>
		<path fill="#CBDB2B" d="M449.932,375.604c0.268-2.484,0.521-4.972,0.856-7.442l0.477-3.712l0.237-1.854l0.118-0.93l0.064-0.485
			l0.092-0.47c0.504-2.479,1.104-4.922,1.823-7.356c0.736-2.433,1.562-4.848,2.895-7.202l-0.176,0.476l1.016-6.59l0.234-1.635
			l0.089-0.687c0.032-0.241,0.035-0.545,0.066-0.865l0.276-3.362l0.531-6.645l0.229-3.312c0.063-1.086,0.138-2.229,0.136-3.209
			c-0.071-0.757-0.146-2.23-0.146-3.341c-0.012-1.132-0.007-2.261,0.012-3.385c0.047-2.261,0.087-4.485,0.282-6.808
			c0.052-0.574,0.146-1.266,0.223-1.811l0.239-1.604c0.161-1.11,0.334-2.239,0.544-3.371c0.43-2.266,0.941-4.547,1.938-6.859
			c0.517-1.148,1.143-2.34,2.258-3.442c0.29-0.272,0.604-0.534,0.97-0.77c0.353-0.229,0.837-0.455,1.022-0.534
			c0.484-0.223,1.076-0.475,1.599-0.688c2.13-0.876,4.258-1.552,5.959-2.455c0.417-0.23,0.822-0.463,1.179-0.728
			c0.188-0.124,0.35-0.269,0.521-0.401l0.032-0.025l0.171-0.131l0.122-0.079l0.231-0.131l0.203-0.106l0.379-0.195l2.961-1.528
			c1.963-1.022,3.916-2.058,5.835-3.124c0.958-0.532,1.909-1.073,2.834-1.627c0.913-0.549,1.852-1.131,2.577-1.684
			c0.171-0.131,0.336-0.274,0.379-0.322c0.02-0.019,0-0.003-0.011,0.015c-0.021,0.023-0.039,0.049-0.056,0.075l-0.058,0.093
			c-0.029,0.059-0.011,0.014-0.074,0.157l0.16-0.38c0.12-0.313,0.304-0.87,0.44-1.34c0.289-0.989,0.546-2.024,0.744-3.039
			c0.104-0.508,0.188-1.013,0.244-1.48c0.031-0.234,0.047-0.455,0.057-0.635c-0.005-0.051,0.009-0.204-0.002-0.171h0.002
			l0.002-0.001h0.001c0.017,0.08-0.034-0.18,0.038,0.179l-0.052-0.202c-0.014-0.063-0.007-0.006,0.002,0.035
			c0.01,0.04,0.021,0.078,0.036,0.115c0.053,0.104,0.031,0.069,0.028,0.067c0.013,0.011-0.066-0.099-0.115-0.171
			c-0.148-0.211-0.354-0.483-0.542-0.792c-0.38-0.604-0.701-1.251-0.938-1.866c-0.495-1.243-0.781-2.434-1.021-3.607
			c-0.245-1.177-0.401-2.33-0.551-3.484l1.38,1.866c-0.393-0.176-0.666-0.316-0.997-0.501c-0.317-0.18-0.641-0.377-0.981-0.628
			c-0.345-0.264-0.707-0.532-1.143-1.113c-0.114-0.17-0.21-0.295-0.326-0.548c-0.054-0.113-0.103-0.229-0.146-0.348l-0.034-0.094
			l-0.14-0.382c-0.419-1.138-0.818-2.327-1.139-3.574c-0.302-1.269-0.597-2.542-0.521-4.199c0.03-0.423,0.081-0.868,0.229-1.378
			c0.078-0.257,0.169-0.52,0.311-0.798l0.051-0.104l0.102-0.181l0.059-0.094l0.114-0.188c0.019-0.039,0.12-0.184,0.199-0.292
			l0.258-0.337c0.166-0.193,0.313-0.354,0.484-0.521c0.171-0.16,0.347-0.316,0.54-0.463c0.216-0.159,0.342-0.261,0.731-0.472
			l-1.289,2.466c-0.42-3.072-0.785-6.058-0.903-9.268c-0.014-0.823-0.034-1.614,0.081-2.618c0.014-0.123,0.03-0.254,0.059-0.403
			c0.024-0.139,0.051-0.281,0.102-0.467l0.072-0.263l0.129-0.342l0.087-0.201l0.058-0.128l0.424-0.982
			c0.609-1.42,1.289-2.884,2.104-4.306c0.816-1.422,1.761-2.83,2.997-4.132c1.229-1.283,2.831-2.519,4.891-3.095
			c1.551-0.415,3.084-0.742,4.652-1.004c1.57-0.26,3.18-0.445,4.837-0.488c1.654-0.047,3.371,0.062,5.11,0.47
			c0.873,0.19,1.728,0.491,2.604,0.868c0.306,0.139,0.774,0.361,1.125,0.55c0.374,0.194,0.736,0.398,1.096,0.607
			c1.432,0.847,2.771,1.812,4.025,2.91c1.251,1.102,2.421,2.337,3.42,3.779c0.992,1.438,1.826,3.111,2.193,5.012
			c0.2,0.932,0.197,2.027,0.193,2.68l0.006,1.13l-0.049,1.216c-0.024,0.823-0.083,1.606-0.15,2.379
			c-0.055,0.781-0.146,1.552-0.23,2.324c-0.185,1.553-0.389,3.053-0.68,4.635l-0.813-2.227c0.366,0.315,0.499,0.476,0.714,0.721
			c0.19,0.229,0.369,0.463,0.53,0.715c0.326,0.498,0.598,1.055,0.784,1.662c0.094,0.304,0.163,0.619,0.211,0.938l0.027,0.242
			l0.013,0.121l0.005,0.062l0.011,0.182l0.002,0.3c0.02,0.271-0.035,1.15-0.129,1.6c-0.178,1.033-0.494,1.922-0.769,2.688
			l-0.396,1.105c-0.125,0.364-0.294,0.835-0.473,1.256c-0.386,0.866-0.788,1.82-1.839,2.821c-0.521,0.486-1.329,0.97-2.253,1.097
			c-0.229,0.035-0.456,0.055-0.673,0.042l-0.329-0.018l-0.082-0.007c-0.091-0.007,0.46,0.03,0.211,0.016h-0.037
			c-0.056-0.002,0.015,0.004,0.155-0.003c0.196-0.004,0.487-0.093,0.583-0.133c0.105-0.039,0.218-0.098,0.305-0.152
			c0.15-0.091,0.272-0.207,0.332-0.27c0.14-0.154,0.164-0.215,0.18-0.24c0.021-0.066-0.096,0.249-0.147,0.529
			c-0.064,0.301-0.12,0.644-0.166,0.997c-0.092,0.711-0.153,1.467-0.199,2.229c-0.089,1.527-0.119,3.095-0.123,4.661l0.019,2.355
			c0.002,0.381,0.021,0.805,0.015,1.194c-0.001,0.188,0.037,0.418,0.101,0.651c0.26,0.948,0.967,1.973,1.969,2.817
			c0.496,0.428,1.042,0.836,1.646,1.193c0.297,0.185,0.595,0.368,0.92,0.526l1.016,0.522l2.143,1.072l2.172,1.152
			c1.438,0.783,2.849,1.561,4.236,2.396c1.395,0.818,2.77,1.666,4.138,2.521l2.034,1.291c0.234,0.151,0.143,0.095,0.264,0.153
			l0.481,0.203l1.099,0.436c1.504,0.594,3.039,1.218,4.57,2.002c0.767,0.397,1.535,0.83,2.315,1.404
			c0.391,0.288,0.788,0.619,1.188,1.064c0.198,0.224,0.397,0.487,0.583,0.807l0.308,0.593c0.793,1.658,1.318,3.16,1.831,4.771
			c0.489,1.592,0.898,3.206,1.201,4.861c0.148,0.829,0.272,1.668,0.349,2.523c0.087,0.837,0.104,1.775,0.104,2.537l0.019,4.802
			l0.057,9.571c0.068,3.179,0.021,6.393,0.372,9.435c0.304,3.268,0.5,6.401,0.811,9.559c0.162,1.562,0.34,3.145,0.658,4.597
			c0.085,0.355,0.175,0.702,0.282,0.985l0.43,1.12c0.288,0.747,0.585,1.482,0.849,2.256c0.553,1.534,1.074,3.052,1.585,4.564
			l0.771,2.259c0.254,0.832,0.372,1.733,0.49,2.511c0.869,6.383,1.42,12.737,1.922,19.122l-0.277,0.033l-1.221-9.506
			c-0.432-3.165-0.86-6.333-1.404-9.477c-0.146-0.786-0.269-1.56-0.514-2.309l-0.823-2.252c-0.543-1.503-1.094-3.002-1.664-4.489
			c-0.271-0.748-0.587-1.482-0.891-2.222c-0.295-0.729-0.643-1.479-0.82-2.275c-0.38-1.568-0.588-3.159-0.789-4.746
			c-0.391-3.176-0.625-6.371-0.962-9.537c-0.408-3.189-0.396-6.394-0.51-9.586l-0.183-9.587l-0.081-4.791
			c-0.01-1.596-0.168-3.165-0.48-4.728c-0.627-3.107-1.59-6.184-2.953-9.031c-0.191-0.365-0.347-0.695-0.609-0.967
			c-0.255-0.279-0.552-0.531-0.868-0.758c-0.635-0.456-1.327-0.842-2.034-1.195c-1.42-0.706-2.902-1.291-4.396-1.855
			c-0.741-0.308-1.504-0.506-2.237-0.952L538.376,287c-1.363-0.829-2.733-1.648-4.119-2.438c-2.773-1.587-5.562-3.116-8.446-4.5
			c-1.438-0.699-2.869-1.496-4.102-2.561c-1.234-1.045-2.287-2.4-2.741-4.007c-0.11-0.4-0.186-0.814-0.191-1.236
			c0.006-0.4-0.016-0.797-0.021-1.198l-0.029-2.399c-0.004-1.603,0.019-3.203,0.104-4.806c0.045-0.802,0.104-1.604,0.203-2.403
			c0.116-0.803,0.2-1.604,0.582-2.404c0.118-0.187,0.222-0.438,0.615-0.521c0.062-0.01,0.063-0.003,0.095-0.004l0.098,0.003
			l0.13,0.004c0.088,0.012,0.174-0.002,0.259-0.016c0.341-0.049,0.656-0.224,0.924-0.471c0.54-0.5,0.899-1.214,1.199-1.932
			c0.299-0.719,0.531-1.491,0.809-2.241c0.268-0.75,0.521-1.496,0.646-2.261c0.109-0.74,0.157-1.561-0.07-2.258
			c-0.219-0.71-0.67-1.38-1.212-1.866l-0.111-0.101l0.024-0.139c0.263-1.473,0.461-2.965,0.631-4.453
			c0.159-1.49,0.299-2.991,0.345-4.481c0.041-0.743,0.052-1.493,0.031-2.248c-0.004-0.763-0.001-1.482-0.156-2.201
			c-0.281-1.436-0.941-2.784-1.786-3.996c-1.711-2.42-4.068-4.36-6.624-5.872c-1.292-0.75-2.633-1.399-4.074-1.705
			c-1.438-0.331-2.932-0.43-4.418-0.381c-2.979,0.1-5.942,0.688-8.837,1.423c-1.396,0.381-2.618,1.268-3.636,2.324
			c-1.022,1.064-1.869,2.301-2.615,3.589c-0.747,1.291-1.387,2.645-1.983,4.021l-0.456,1.04c-0.175,0.341-0.229,0.621-0.279,1.002
			c-0.089,0.72-0.084,1.472-0.07,2.216c0.094,2.989,0.438,5.986,0.834,8.961l0.022,0.176l-0.164,0.093
			c-0.212,0.119-0.442,0.296-0.638,0.48c-0.201,0.196-0.366,0.393-0.521,0.62c-0.167,0.261-0.277,0.457-0.354,0.726
			c-0.077,0.256-0.112,0.53-0.133,0.809c-0.064,1.12,0.16,2.271,0.432,3.392c0.281,1.124,0.646,2.229,1.043,3.324
			c0.109,0.274,0.183,0.58,0.312,0.744c0.145,0.199,0.355,0.383,0.578,0.548c0.447,0.329,0.961,0.609,1.472,0.844l0.131,0.061
			l0.019,0.141c0.273,2.191,0.599,4.409,1.378,6.452c0.194,0.51,0.438,0.994,0.721,1.453c0.269,0.474,0.672,0.838,0.898,1.49
			c0.151,0.61,0.059,1.188,0,1.747c-0.072,0.561-0.17,1.113-0.282,1.664c-0.223,1.099-0.496,2.185-0.815,3.26
			c-0.165,0.539-0.333,1.065-0.548,1.604l-0.164,0.386c-0.093,0.188-0.194,0.286-0.3,0.4c-0.211,0.214-0.434,0.394-0.66,0.565
			c-1.829,1.333-3.787,2.396-5.734,3.483c-1.953,1.072-3.929,2.106-5.908,3.126l-2.977,1.52c-0.229,0.12-0.54,0.265-0.691,0.367
			c-0.225,0.176-0.441,0.36-0.679,0.518c-0.46,0.335-0.954,0.614-1.45,0.884c-2.009,1.038-4.147,1.698-6.203,2.526
			c-0.519,0.204-1.024,0.413-1.536,0.638c-0.518,0.209-0.946,0.473-1.34,0.847c-0.771,0.741-1.329,1.707-1.781,2.701
			c-0.896,2.01-1.431,4.179-1.865,6.349c-0.217,1.089-0.399,2.184-0.573,3.282c-0.171,1.103-0.379,2.203-0.49,3.29
			c-0.216,2.206-0.286,4.434-0.361,6.654c-0.032,1.111-0.051,2.223-0.055,3.334c-0.012,1.114,0.025,2.185,0.103,3.337
			c-0.056,2.248-0.278,4.457-0.461,6.679l-0.621,6.652c-0.231,2.204-0.358,4.448-0.769,6.646l-1.104,6.589l-0.005,0.031l-0.018,0.03
			c-1.239,2.134-2.1,4.482-2.869,6.839c-0.753,2.367-1.398,4.771-1.943,7.196c-0.256,1.207-0.473,2.441-0.71,3.662l-0.699,3.67
			l-1.397,7.339L449.932,375.604z"/>
	</g>
	<path fill="none" stroke="#CBDB2B" stroke-width="2.7858" stroke-miterlimit="10" d="M504.199,291.389
		c0.925,0.076,8.565,0.633,8.565,0.633l0.717,6.349l4.356,1.76l4.689-4.113l4.719,4.896l-3.3,4.229l2.403,6.565l5.746,0.011
		l0.055,6.837l-5.681,1.084l-1.071,5.422l4.152,3.295l-3.764,6.988l-4.351-1.837l-3.432,2.979l0.851,4.729l-5.969,1.757
		l-1.956-5.442l-6.215-0.902l-2.748,5.982l-6.285-1.919l0.775-5.604l-3.825-2.568l-5.872,1.532l-2.845-5.05l3.752-4.038l-1.12-6.147
		l-5.804-1.182l0.696-7.475l6.646-0.536l1.625-4.603l-3.346-5.557l5.475-5.137l5.161,4.23l5.051-0.978L504.199,291.389z"/>
	
		<path fill="none" stroke="#00B258" stroke-width="1.8572" stroke-linecap="round" stroke-linejoin="round" stroke-miterlimit="10" d="
		M504.35,293.383c0.865,0.071,8.009,0.592,8.009,0.592l0.67,5.936l4.073,1.646l4.384-3.848l4.412,4.576l-3.086,3.954l2.248,6.141
		l5.371,0.009l0.051,6.392l-5.311,1.014l-1.003,5.069l3.883,3.079l-3.518,6.533l-4.067-1.718l-3.207,2.783l0.795,4.421l-5.58,1.644
		l-1.829-5.088l-5.809-0.845l-2.57,5.593l-5.876-1.793l0.725-5.24l-3.576-2.401l-5.488,1.435l-2.657-4.722l3.507-3.774l-1.048-5.749
		l-5.425-1.103l0.65-6.986l6.212-0.503l1.519-4.301l-3.125-5.195l5.116-4.803l4.826,3.958l4.722-0.916L504.35,293.383z"/>
	<path fill="none" stroke="#CBDB2B" stroke-width="2.7858" stroke-miterlimit="10" d="M504.575,344.872
		c0.502,0,4.649-0.042,4.649-0.042l0.672,3.396l2.43,0.753l2.346-2.429l2.767,2.429l-1.593,2.433l1.593,3.436l3.102-0.252
		l0.336,3.687l-3.02,0.838l-0.333,2.978l2.388,1.592l-1.719,3.938l-2.43-0.797l-1.718,1.763l0.669,2.514l-3.142,1.213l-1.299-2.847
		l-3.394-0.211l-1.216,3.352l-3.479-0.755l0.167-3.057l-2.178-1.216l-3.103,1.09l-1.759-2.598l1.844-2.348l-0.882-3.268
		l-3.183-0.378l0.042-4.063l3.562-0.586l0.669-2.558l-2.053-2.85l2.722-3.017l2.978,2.053l2.683-0.755L504.575,344.872z"/>
	
		<path fill="none" stroke="#00B258" stroke-width="1.8572" stroke-linecap="round" stroke-linejoin="round" stroke-miterlimit="10" d="
		M504.333,343.174c0.555,0,5.117-0.045,5.117-0.045l0.737,3.733l2.674,0.83l2.583-2.673l3.041,2.673l-1.752,2.674l1.752,3.781
		l3.412-0.277l0.369,4.059l-3.318,0.921l-0.37,3.272l2.628,1.753l-1.89,4.333l-2.676-0.877l-1.89,1.938l0.737,2.766l-3.458,1.337
		l-1.43-3.134l-3.732-0.229l-1.339,3.688l-3.823-0.829l0.183-3.365l-2.396-1.338l-3.411,1.199l-1.938-2.858l2.028-2.579l-0.97-3.599
		l-3.502-0.415l0.046-4.473l3.92-0.644l0.735-2.813l-2.259-3.136l2.997-3.319l3.272,2.261l2.951-0.831L504.333,343.174z"/>
	<g>
		<path fill="#00B258" d="M447.251,376.6c0.618-4.275,1.363-8.533,2.257-12.765c0.449-2.116,0.942-4.225,1.527-6.314
			c0.296-1.044,0.614-2.084,0.982-3.112c0.374-1.027,0.783-2.049,1.362-3.027l-0.063,0.158l1.182-6.961l0.279-1.737
			c0.046-0.291,0.09-0.584,0.117-0.824c0.04-0.278,0.045-0.583,0.08-0.891l0.337-3.528l0.655-7.03
			c0.189-2.333,0.427-4.709,0.472-6.994c-0.082-1.045-0.142-2.354-0.134-3.529c-0.002-1.186,0.013-2.368,0.042-3.55
			c0.07-2.365,0.138-4.722,0.37-7.104c0.062-0.592,0.158-1.229,0.247-1.803c0.101-0.558,0.181-1.139,0.266-1.72
			c0.169-1.165,0.338-2.338,0.532-3.508c0.391-2.339,0.85-4.679,1.548-6.983c0.353-1.151,0.759-2.297,1.316-3.406
			c0.564-1.094,1.234-2.226,2.415-3.034c0.662-0.411,1.14-0.568,1.688-0.835c0.553-0.237,1.027-0.509,1.535-0.764
			c1.004-0.542,1.929-1.174,2.954-1.835c1.023-0.667,2.217-1.186,3.272-1.622l3.252-1.38l6.498-2.769l6.474-2.801l0.788-0.358
			l0.178-0.086c0.022-0.012,0.05-0.026,0.027-0.013c0.01-0.015-0.236,0.166-0.284,0.334l0.012-0.024l0.022-0.052
			c0.057-0.13,0.13-0.274,0.174-0.394c0.194-0.472,0.387-1.043,0.556-1.58c0.341-1.095,0.635-2.218,0.87-3.34
			c0.119-0.562,0.222-1.124,0.291-1.674c0.062-0.562,0.126-1.078,0-1.425c-0.016-0.013-0.024-0.025-0.029-0.044l-0.073-0.12
			c-0.056-0.091-0.137-0.195-0.22-0.311c-0.172-0.228-0.369-0.486-0.544-0.758c-0.354-0.541-0.654-1.118-0.892-1.7
			c-0.941-2.337-1.304-4.722-1.624-7.09l0.518,0.681c-0.642-0.279-1.216-0.572-1.812-0.973c-0.295-0.204-0.592-0.427-0.886-0.771
			c-0.072-0.09-0.146-0.194-0.214-0.298c-0.062-0.11-0.147-0.3-0.168-0.357l-0.162-0.429c-0.457-1.183-0.886-2.398-1.223-3.652
			c-0.321-1.264-0.612-2.552-0.531-3.998c0.027-0.363,0.081-0.738,0.201-1.125c0.102-0.375,0.388-0.832,0.532-1.04
			c0.1-0.145,0.247-0.321,0.374-0.477c0.133-0.135,0.259-0.273,0.399-0.397c0.293-0.26,0.554-0.46,0.97-0.683l-0.484,0.914
			c-0.25-1.696-0.462-3.383-0.64-5.086c-0.171-1.703-0.319-3.406-0.335-5.159c-0.004-0.438,0.008-0.883,0.038-1.338
			c0.037-0.462,0.069-0.911,0.259-1.481c0.14-0.361,0.213-0.464,0.307-0.67l0.277-0.571l0.572-1.151
			c0.776-1.533,1.622-3.044,2.577-4.497c0.959-1.449,2.021-2.854,3.296-4.108c1.271-1.239,2.787-2.38,4.663-2.899
			c1.696-0.427,3.374-0.76,5.078-1.031c1.703-0.266,3.425-0.461,5.165-0.521c1.739-0.06,3.499,0,5.258,0.294
			c1.762,0.291,3.516,0.925,5.053,1.825c1.539,0.878,2.95,1.922,4.269,3.076c1.314,1.156,2.527,2.436,3.584,3.855
			c1.05,1.421,1.962,2.989,2.496,4.753c0.263,0.877,0.42,1.818,0.424,2.749c-0.006,0.854,0.045,1.68-0.007,2.56
			c-0.061,1.753-0.188,3.458-0.395,5.162c-0.194,1.708-0.438,3.39-0.763,5.097l-0.317-0.852c0.787,0.674,1.311,1.414,1.671,2.35
			c0.169,0.47,0.271,0.937,0.286,1.477c-0.001,0.207,0.008,0.396,0.001,0.617l-0.068,0.729c-0.134,0.903-0.416,1.735-0.701,2.513
			l-0.864,2.302c-0.319,0.788-0.689,1.594-1.299,2.349c-0.309,0.37-0.688,0.732-1.184,0.992c-0.487,0.261-1.097,0.392-1.645,0.324
			l-0.053-0.003c-0.098-0.006,0.073,0.005,0.043,0.004h-0.066c0.112,0.009,0.205-0.032,0.224-0.041
			c0.069-0.031,0.081-0.065,0.067-0.043c-0.027,0.026-0.097,0.161-0.146,0.302c-0.104,0.297-0.183,0.663-0.243,1.033
			c-0.119,0.748-0.181,1.537-0.221,2.328c-0.076,1.587-0.068,3.196-0.03,4.805l0.086,2.415l0.061,1.21
			c0.017,0.176,0.015,0.512,0.015,0.617c0.009,0.149,0.027,0.304,0.063,0.46c0.274,1.284,1.347,2.459,2.512,3.404
			c1.195,0.95,2.57,1.729,4.005,2.39c2.932,1.396,5.884,2.723,8.799,4.19c1.463,0.716,2.924,1.437,4.367,2.185l2.172,1.116
			l2.11,1.132c1.417,0.614,3,1.213,4.476,1.955c0.746,0.37,1.483,0.773,2.196,1.25c0.707,0.485,1.413,1.019,1.982,1.809
			c0.075,0.116,0.118,0.175,0.217,0.345l0.136,0.271c0.093,0.171,0.181,0.367,0.263,0.589c0.184,0.433,0.3,0.825,0.432,1.229
			c0.239,0.802,0.444,1.604,0.621,2.408c0.356,1.606,0.636,3.221,0.871,4.839c0.458,3.229,0.788,6.517,0.729,9.791
			c-0.028,3.263-0.122,6.5-0.193,9.744c-0.068,3.242-0.15,6.486-0.136,9.72c0.018,1.635,0.017,3.19,0.281,4.786l0.672,4.817
			c0.474,3.199,0.93,6.42,1.701,9.533c0.341,1.555,1.139,2.948,1.614,4.562c0.497,1.556,0.931,3.122,1.365,4.685
			c0.216,0.782,0.441,1.559,0.677,2.329l0.391,1.146c0.128,0.41,0.2,0.823,0.271,1.226c0.259,1.618,0.403,3.233,0.55,4.852
			l0.397,4.854l0.21,2.425c0.094,0.803,0.126,1.622,0.349,2.402c-0.248-0.774-0.307-1.594-0.427-2.395l-0.287-2.418l-0.554-4.835
			c-0.198-1.608-0.396-3.222-0.7-4.8c-0.083-0.396-0.165-0.78-0.291-1.143l-0.416-1.148c-0.254-0.776-0.495-1.554-0.726-2.332
			c-0.466-1.556-0.927-3.108-1.444-4.634c-0.272-0.749-0.537-1.495-0.88-2.238c-0.327-0.726-0.641-1.559-0.835-2.338
			c-0.847-3.174-1.367-6.383-1.894-9.592l-0.723-4.816c-0.122-0.78-0.239-1.649-0.268-2.465c-0.042-0.822-0.063-1.637-0.074-2.452
			c-0.049-3.258-0.002-6.503,0.033-9.749c0.037-3.243,0.098-6.494,0.091-9.722c0.024-3.22-0.323-6.407-0.808-9.597
			c-0.246-1.59-0.535-3.174-0.896-4.729c-0.377-1.547-0.76-3.139-1.482-4.321c-0.818-1.07-2.276-1.869-3.668-2.556
			c-1.434-0.701-2.896-1.233-4.464-1.892l-2.189-1.146l-2.164-1.096c-1.439-0.741-2.893-1.451-4.346-2.157
			c-2.886-1.444-5.857-2.769-8.791-4.153c-1.512-0.691-2.988-1.515-4.339-2.58c-1.309-1.08-2.641-2.391-3.103-4.325
			c-0.054-0.239-0.088-0.488-0.103-0.744c-0.006-0.299,0.002-0.369-0.017-0.6l-0.063-1.22l-0.094-2.449
			c-0.043-1.635-0.058-3.272,0.019-4.929c0.04-0.828,0.099-1.659,0.231-2.515c0.071-0.431,0.153-0.861,0.316-1.332
			c0.091-0.238,0.181-0.484,0.406-0.777c0.104-0.14,0.274-0.312,0.523-0.435c0.108-0.059,0.3-0.119,0.513-0.128l0.229,0.006
			c0.975,0.167,1.856-1.202,2.393-2.617l0.839-2.258c0.273-0.744,0.507-1.462,0.608-2.166l0.048-0.483
			c0.007-0.185-0.003-0.399-0.003-0.6c-0.009-0.271-0.072-0.607-0.183-0.899c-0.208-0.585-0.669-1.201-1.115-1.577l-0.021-0.017
			c-0.25-0.211-0.354-0.533-0.298-0.834c0.304-1.625,0.542-3.302,0.728-4.961c0.197-1.662,0.312-3.342,0.366-4.978
			c0.05-0.812-0.003-1.686,0-2.524c-0.007-0.766-0.133-1.511-0.356-2.257c-0.453-1.488-1.265-2.899-2.23-4.195
			c-0.972-1.297-2.105-2.489-3.34-3.568c-1.232-1.074-2.564-2.052-3.976-2.849c-1.395-0.807-2.877-1.34-4.463-1.6
			c-1.588-0.262-3.232-0.316-4.879-0.255c-3.287,0.136-6.636,0.691-9.836,1.471c-1.416,0.38-2.729,1.313-3.868,2.429
			c-1.146,1.122-2.15,2.431-3.063,3.804c-0.911,1.377-1.729,2.827-2.489,4.314l-0.562,1.124l-0.28,0.571
			c-0.086,0.178-0.223,0.443-0.229,0.48c-0.172,0.527-0.201,1.434-0.202,2.22c0.01,1.64,0.146,3.317,0.312,4.987
			c0.171,1.669,0.376,3.349,0.614,5.006c0.055,0.372-0.136,0.725-0.447,0.896l-0.036,0.02c-0.139,0.074-0.391,0.244-0.562,0.406
			c-0.095,0.081-0.179,0.178-0.268,0.263c-0.067,0.092-0.13,0.149-0.211,0.262c-0.205,0.312-0.261,0.389-0.337,0.62
			c-0.066,0.213-0.106,0.463-0.128,0.725c-0.069,1.066,0.167,2.271,0.468,3.432c0.311,1.171,0.713,2.327,1.155,3.485l0.171,0.453
			c0.032,0.089,0.025,0.037,0.028,0.067l0.062,0.083c0.111,0.137,0.313,0.307,0.536,0.456c0.442,0.304,0.988,0.588,1.498,0.81
			l0.008,0.004c0.286,0.124,0.471,0.389,0.51,0.678c0.298,2.287,0.664,4.608,1.486,6.652c0.205,0.509,0.453,0.979,0.739,1.426
			c0.145,0.225,0.305,0.435,0.484,0.678c0.183,0.271,0.392,0.477,0.592,1.029l0.062,0.226l0.014,0.055
			c-0.001-0.009,0.032,0.151,0.021,0.103l0.004,0.038l0.015,0.148c0.024,0.212,0.017,0.377,0.014,0.549
			c-0.012,0.339-0.043,0.651-0.085,0.961c-0.081,0.619-0.191,1.214-0.318,1.805c-0.252,1.182-0.559,2.34-0.922,3.492
			c-0.188,0.585-0.366,1.132-0.625,1.748c-0.062,0.157-0.121,0.273-0.184,0.414l-0.021,0.05l-0.013,0.024
			c-0.062,0.18-0.328,0.368-0.327,0.367l-0.166,0.093l-0.221,0.105l-0.82,0.37l-6.505,2.792l-6.511,2.75l-3.256,1.37
			c-1.118,0.462-2.098,0.882-3.054,1.496c-0.954,0.612-1.983,1.303-3.061,1.869c-0.546,0.27-1.102,0.57-1.635,0.794
			c-0.514,0.233-1.151,0.485-1.485,0.704c-0.793,0.514-1.424,1.46-1.928,2.438c-0.511,0.991-0.908,2.069-1.254,3.165
			c-0.689,2.198-1.164,4.487-1.569,6.788c-0.203,1.151-0.382,2.309-0.561,3.474c-0.091,0.582-0.177,1.167-0.291,1.77
			c-0.096,0.588-0.18,1.114-0.248,1.692c-0.248,2.305-0.339,4.661-0.432,7.001c-0.04,1.173-0.066,2.345-0.075,3.517
			c-0.018,1.179,0.016,2.224,0.1,3.526c-0.072,2.425-0.331,4.739-0.545,7.099l-0.724,7.032l-0.369,3.501
			c-0.035,0.277-0.043,0.563-0.087,0.868c-0.038,0.344-0.089,0.634-0.137,0.923l-0.299,1.747l-1.266,6.956
			c-0.011,0.058-0.034,0.113-0.063,0.159c-0.552,0.862-0.988,1.84-1.386,2.827c-0.395,0.991-0.743,2.006-1.07,3.029
			c-0.649,2.048-1.215,4.13-1.734,6.222C448.906,368.121,448.016,372.35,447.251,376.6z"/>
	</g>
</g>
<g>
	<g>
		<path fill="#CBDB2B" d="M621.557,375.093c0.268-2.484,0.521-4.972,0.856-7.441l0.477-3.712l0.237-1.856l0.118-0.928l0.064-0.485
			l0.092-0.471c0.503-2.478,1.104-4.922,1.823-7.355c0.736-2.435,1.564-4.849,2.896-7.201l-0.176,0.475l1.013-6.589l0.235-1.635
			l0.089-0.688c0.032-0.24,0.035-0.545,0.066-0.864l0.276-3.362l0.531-6.646l0.23-3.312c0.063-1.086,0.137-2.229,0.134-3.207
			c-0.071-0.761-0.147-2.231-0.146-3.343c-0.012-1.132-0.007-2.26,0.012-3.385c0.047-2.262,0.087-4.485,0.281-6.808
			c0.053-0.574,0.146-1.266,0.225-1.812l0.24-1.604c0.16-1.109,0.332-2.237,0.543-3.369c0.43-2.266,0.941-4.548,1.938-6.859
			c0.515-1.149,1.14-2.34,2.257-3.444c0.289-0.271,0.604-0.533,0.968-0.769c0.353-0.23,0.839-0.456,1.024-0.535
			c0.484-0.222,1.075-0.475,1.597-0.688c2.131-0.877,4.259-1.554,5.96-2.455c0.417-0.23,0.823-0.464,1.18-0.728
			c0.188-0.125,0.35-0.269,0.521-0.401l0.032-0.025l0.168-0.129l0.108-0.071l0.247-0.141l0.203-0.106l0.38-0.197l2.961-1.527
			c1.963-1.021,3.916-2.059,5.835-3.123c0.958-0.533,1.909-1.073,2.834-1.628c0.913-0.549,1.851-1.13,2.577-1.685
			c0.171-0.13,0.336-0.273,0.38-0.321c0.014,0.004,0.015-0.068-0.172,0.28l0.136-0.321c0.119-0.312,0.304-0.869,0.44-1.339
			c0.29-0.989,0.546-2.023,0.746-3.038c0.103-0.509,0.187-1.014,0.244-1.48c0.03-0.236,0.047-0.455,0.056-0.635
			c-0.004-0.051,0.009-0.203,0-0.17l0,0h0.003h0.001c0.017,0.08-0.034-0.183,0.037,0.18l-0.051-0.202
			c-0.014-0.062-0.007-0.006,0.002,0.034c0.01,0.04,0.021,0.078,0.036,0.115c0.051,0.104,0.031,0.068,0.028,0.065
			c0.012,0.012-0.067-0.099-0.116-0.171c-0.147-0.21-0.353-0.482-0.542-0.791c-0.379-0.604-0.7-1.251-0.939-1.866
			c-0.493-1.243-0.779-2.434-1.02-3.607c-0.245-1.177-0.401-2.33-0.551-3.484l1.378,1.865c-0.392-0.176-0.664-0.316-0.995-0.501
			c-0.318-0.18-0.64-0.376-0.981-0.627c-0.343-0.263-0.706-0.53-1.142-1.109c-0.114-0.171-0.21-0.294-0.327-0.547
			c-0.054-0.113-0.104-0.23-0.146-0.349l-0.035-0.101l-0.141-0.381c-0.418-1.136-0.817-2.327-1.137-3.573
			c-0.302-1.269-0.598-2.542-0.521-4.198c0.028-0.423,0.08-0.867,0.228-1.377c0.079-0.258,0.17-0.52,0.31-0.799l0.051-0.103
			l0.104-0.186l0.059-0.095l0.113-0.188c0.021-0.039,0.122-0.185,0.201-0.292l0.257-0.337c0.166-0.192,0.313-0.354,0.484-0.521
			c0.171-0.16,0.346-0.315,0.54-0.462c0.215-0.159,0.341-0.26,0.729-0.471l-1.287,2.465c-0.42-3.073-0.784-6.058-0.902-9.268
			c-0.016-0.823-0.035-1.614,0.08-2.617c0.014-0.123,0.029-0.254,0.059-0.403c0.024-0.139,0.05-0.282,0.101-0.466l0.071-0.262
			l0.129-0.343l0.089-0.205l0.059-0.129l0.424-0.979c0.608-1.42,1.288-2.884,2.104-4.306c0.816-1.423,1.761-2.83,2.997-4.133
			c1.229-1.281,2.83-2.517,4.889-3.094c1.557-0.417,3.084-0.742,4.653-1.003c1.57-0.26,3.18-0.447,4.837-0.49
			c1.653-0.046,3.371,0.063,5.11,0.47c0.874,0.19,1.728,0.49,2.605,0.868c0.306,0.14,0.773,0.362,1.125,0.551
			c0.373,0.193,0.736,0.398,1.096,0.607c1.431,0.847,2.771,1.812,4.024,2.91c1.251,1.101,2.421,2.337,3.42,3.779
			c0.992,1.438,1.826,3.111,2.192,5.012c0.201,0.931,0.198,2.027,0.194,2.679l0.007,1.129l-0.05,1.218
			c-0.023,0.822-0.083,1.606-0.15,2.379c-0.054,0.78-0.146,1.552-0.229,2.324c-0.185,1.553-0.39,3.053-0.681,4.635l-0.813-2.228
			c0.365,0.316,0.499,0.477,0.713,0.721c0.19,0.229,0.37,0.463,0.531,0.715c0.326,0.498,0.598,1.055,0.785,1.662
			c0.093,0.304,0.163,0.618,0.211,0.938l0.026,0.242l0.013,0.122l0.006,0.061l0.01,0.183l0.003,0.299
			c0.02,0.271-0.036,1.148-0.129,1.599c-0.177,1.034-0.493,1.922-0.768,2.69l-0.396,1.106c-0.126,0.364-0.295,0.834-0.473,1.255
			c-0.386,0.864-0.787,1.819-1.838,2.82c-0.521,0.486-1.329,0.971-2.255,1.099c-0.229,0.034-0.457,0.055-0.675,0.041l-0.33-0.018
			l-0.082-0.007c-0.093-0.007,0.473,0.031,0.218,0.015h-0.037c-0.057-0.002,0.021,0.004,0.158-0.003
			c0.196-0.003,0.486-0.093,0.58-0.132c0.104-0.039,0.216-0.098,0.303-0.153c0.148-0.09,0.271-0.205,0.33-0.268
			c0.14-0.154,0.164-0.215,0.18-0.24c0.021-0.065-0.095,0.249-0.146,0.529c-0.064,0.301-0.121,0.643-0.166,0.997
			c-0.094,0.711-0.154,1.467-0.2,2.229c-0.089,1.528-0.119,3.096-0.123,4.662l0.018,2.355c0.002,0.382,0.022,0.804,0.016,1.194
			c-0.001,0.188,0.036,0.417,0.101,0.65c0.259,0.948,0.967,1.973,1.969,2.819c0.496,0.428,1.042,0.837,1.646,1.193
			c0.297,0.186,0.595,0.369,0.92,0.526l1.014,0.522l2.144,1.072l2.172,1.152c1.438,0.783,2.849,1.56,4.235,2.396
			c1.396,0.82,2.771,1.666,4.139,2.522l2.033,1.29c0.235,0.151,0.147,0.098,0.267,0.155l0.48,0.203l1.1,0.436
			c1.503,0.593,3.038,1.218,4.568,2.002c0.768,0.397,1.535,0.829,2.316,1.403c0.39,0.288,0.788,0.62,1.188,1.064
			c0.197,0.225,0.397,0.487,0.582,0.807l0.31,0.595c0.79,1.657,1.315,3.159,1.829,4.769c0.489,1.592,0.897,3.206,1.202,4.861
			c0.147,0.83,0.271,1.668,0.35,2.523c0.087,0.837,0.104,1.775,0.104,2.537l0.019,4.803l0.055,9.571
			c0.069,3.179,0.021,6.394,0.371,9.435c0.306,3.268,0.501,6.401,0.812,9.559c0.162,1.562,0.34,3.145,0.657,4.596
			c0.084,0.356,0.175,0.703,0.281,0.986l0.432,1.12c0.288,0.746,0.586,1.48,0.85,2.255c0.552,1.535,1.073,3.053,1.583,4.566
			l0.771,2.259c0.255,0.831,0.372,1.731,0.49,2.51c0.871,6.383,1.422,12.737,1.925,19.122l-0.276,0.033l-1.223-9.506
			c-0.432-3.165-0.86-6.333-1.404-9.477c-0.146-0.786-0.271-1.56-0.516-2.308l-0.822-2.253c-0.542-1.503-1.094-3.002-1.662-4.489
			c-0.271-0.748-0.588-1.483-0.892-2.223c-0.296-0.729-0.643-1.479-0.82-2.274c-0.38-1.569-0.588-3.159-0.789-4.747
			c-0.393-3.175-0.625-6.37-0.963-9.536c-0.408-3.189-0.396-6.394-0.51-9.587l-0.181-9.586l-0.082-4.791
			c-0.009-1.596-0.168-3.166-0.48-4.728c-0.629-3.107-1.593-6.184-2.953-9.032c-0.192-0.366-0.348-0.695-0.609-0.967
			c-0.255-0.279-0.552-0.53-0.869-0.758c-0.634-0.456-1.327-0.841-2.034-1.195c-1.42-0.706-2.902-1.29-4.395-1.855
			c-0.742-0.307-1.504-0.508-2.238-0.952L710,286.491c-1.362-0.83-2.732-1.648-4.12-2.439c-2.772-1.586-5.561-3.115-8.445-4.498
			c-1.438-0.7-2.868-1.498-4.103-2.562c-1.231-1.047-2.285-2.401-2.739-4.009c-0.11-0.399-0.186-0.813-0.191-1.235
			c0.006-0.4-0.016-0.797-0.021-1.198l-0.028-2.4c-0.003-1.602,0.019-3.202,0.104-4.806c0.045-0.801,0.104-1.603,0.204-2.403
			c0.117-0.802,0.201-1.604,0.583-2.403c0.119-0.187,0.222-0.438,0.615-0.521c0.062-0.011,0.062-0.004,0.095-0.005l0.097,0.003
			l0.132,0.004c0.088,0.011,0.173-0.001,0.258-0.016c0.341-0.048,0.656-0.225,0.925-0.471c0.539-0.5,0.897-1.215,1.198-1.932
			c0.299-0.72,0.531-1.492,0.81-2.242c0.267-0.75,0.52-1.496,0.646-2.26c0.107-0.741,0.155-1.561-0.071-2.259
			c-0.22-0.709-0.671-1.379-1.213-1.865l-0.112-0.101l0.025-0.14c0.264-1.472,0.462-2.964,0.631-4.453
			c0.16-1.489,0.3-2.99,0.344-4.48c0.041-0.743,0.052-1.493,0.032-2.248c-0.004-0.763-0.002-1.483-0.156-2.201
			c-0.282-1.436-0.942-2.785-1.786-3.996c-1.712-2.42-4.068-4.36-6.625-5.874c-1.292-0.749-2.631-1.399-4.072-1.705
			c-1.438-0.331-2.933-0.428-4.42-0.379c-2.978,0.1-5.941,0.688-8.837,1.422c-1.394,0.382-2.616,1.27-3.635,2.325
			c-1.021,1.064-1.869,2.3-2.615,3.588c-0.747,1.292-1.387,2.646-1.983,4.021l-0.456,1.04c-0.175,0.34-0.23,0.622-0.28,1.002
			c-0.088,0.72-0.083,1.472-0.07,2.216c0.095,2.989,0.44,5.986,0.835,8.961l0.023,0.176l-0.164,0.092
			c-0.212,0.119-0.443,0.297-0.638,0.482c-0.201,0.195-0.367,0.392-0.521,0.62c-0.168,0.261-0.276,0.455-0.354,0.724
			c-0.077,0.256-0.111,0.532-0.132,0.811c-0.063,1.12,0.159,2.271,0.433,3.393c0.281,1.123,0.645,2.229,1.042,3.325
			c0.109,0.274,0.182,0.579,0.311,0.742c0.146,0.2,0.358,0.383,0.58,0.548c0.448,0.329,0.961,0.609,1.474,0.845l0.13,0.061
			l0.018,0.141c0.274,2.191,0.6,4.408,1.378,6.452c0.195,0.51,0.438,0.994,0.722,1.453c0.269,0.474,0.671,0.838,0.897,1.489
			c0.153,0.611,0.059,1.189,0,1.747c-0.073,0.562-0.17,1.114-0.283,1.663c-0.223,1.101-0.497,2.186-0.816,3.261
			c-0.165,0.539-0.333,1.066-0.548,1.605l-0.168,0.39c-0.087,0.177-0.192,0.284-0.298,0.396c-0.211,0.215-0.434,0.394-0.659,0.566
			c-1.829,1.333-3.787,2.395-5.734,3.482c-1.955,1.073-3.929,2.107-5.909,3.126l-2.976,1.52c-0.229,0.121-0.54,0.265-0.691,0.368
			c-0.225,0.176-0.44,0.359-0.679,0.518c-0.46,0.334-0.953,0.614-1.449,0.884c-2.01,1.038-4.147,1.697-6.205,2.525
			c-0.517,0.204-1.022,0.413-1.535,0.639c-0.517,0.209-0.946,0.472-1.34,0.846c-0.771,0.742-1.329,1.707-1.78,2.703
			c-0.896,2.009-1.43,4.177-1.864,6.349c-0.217,1.088-0.398,2.184-0.573,3.281c-0.171,1.103-0.379,2.204-0.491,3.29
			c-0.216,2.206-0.287,4.435-0.361,6.654c-0.031,1.11-0.052,2.223-0.055,3.334c-0.012,1.114,0.025,2.186,0.103,3.336
			c-0.055,2.249-0.276,4.457-0.46,6.68l-0.621,6.652c-0.232,2.204-0.359,4.447-0.77,6.645l-1.103,6.59l-0.005,0.031l-0.019,0.03
			c-1.24,2.133-2.1,4.48-2.87,6.838c-0.755,2.367-1.398,4.771-1.943,7.195c-0.256,1.208-0.474,2.441-0.71,3.662l-0.699,3.67
			l-1.398,7.339L621.557,375.093z"/>
	</g>
	
		<path fill="none" stroke="#CBDB2B" stroke-width="2.7858" stroke-linecap="round" stroke-linejoin="round" stroke-miterlimit="10" d="
		M658.473,304.188c0,0,13.309,0.154,25.226,0.154c11.918,0,14.751-0.462,14.751-0.462"/>
	
		<path fill="none" stroke="#CBDB2B" stroke-width="2.7858" stroke-linecap="round" stroke-linejoin="round" stroke-miterlimit="10" d="
		M658.488,359.483c0,0,13.302,0.489,25.216,0.786c11.914,0.3,14.582-1.183,14.582-1.183"/>
	<g>
		
			<path fill="none" stroke="#CBDB2B" stroke-width="2.7858" stroke-linecap="round" stroke-linejoin="round" stroke-miterlimit="10" d="
			M668.503,324.698c0.436,0,6.816,0.944,10.733,0.073c3.916-0.87,10.083,0.072,10.083,0.072"/>
		
			<path fill="none" stroke="#CBDB2B" stroke-width="2.7858" stroke-linecap="round" stroke-linejoin="round" stroke-miterlimit="10" d="
			M669.806,353.076c2.799-5.476,8.524-11.743,9.144-11.356c0.933,0.584,8.435,9.543,8.988,10.702"/>
		
			<path fill="none" stroke="#CBDB2B" stroke-width="2.7858" stroke-linecap="round" stroke-linejoin="round" stroke-miterlimit="10" d="
			M662.089,311.103c0,0,3.592,18.957,16.424,18.957c13.561,0,16.132-19.395,16.132-19.395S666.462,311.978,662.089,311.103z"/>
		
			<path fill="none" stroke="#CBDB2B" stroke-width="2.7858" stroke-linecap="round" stroke-linejoin="round" stroke-miterlimit="10" d="
			M662.089,353.117c0,0,3.592-18.958,16.424-18.958c13.561,0,16.132,19.396,16.132,19.396S666.462,352.241,662.089,353.117z"/>
	</g>
	<g>
		
			<path fill="none" stroke="#00B258" stroke-width="1.8572" stroke-linecap="round" stroke-linejoin="round" stroke-miterlimit="10" d="
			M670.205,352.783c2.799-5.475,8.126-10.91,8.744-10.521c0.933,0.582,8.435,9.543,8.988,10.7"/>
		
			<path fill="none" stroke="#00B258" stroke-width="1.8572" stroke-linecap="round" stroke-linejoin="round" stroke-miterlimit="10" d="
			M659.063,306.203c0,0,12.719,0.308,24.636,0.308c11.918,0,14.598-0.696,14.598-0.696"/>
		
			<path fill="none" stroke="#00B258" stroke-width="1.8572" stroke-linecap="round" stroke-linejoin="round" stroke-miterlimit="10" d="
			M658.984,357.815c0,0,12.754,0.222,24.666,0.521c11.913,0.298,13.33-0.442,13.33-0.442"/>
		
			<path fill="none" stroke="#00B258" stroke-width="1.8572" stroke-linecap="round" stroke-linejoin="round" stroke-miterlimit="10" d="
			M662.307,311.978c0,0,3.591,18.957,16.425,18.957c13.562,0,16.132-19.396,16.132-19.396S667.885,311.673,662.307,311.978z"/>
		
			<path fill="none" stroke="#00B258" stroke-width="1.8572" stroke-linecap="round" stroke-linejoin="round" stroke-miterlimit="10" d="
			M662.307,352.241c0,0,3.591-18.957,16.425-18.957c13.562,0,16.132,19.396,16.132,19.396S666.723,352.917,662.307,352.241z"/>
		
			<path fill="none" stroke="#00B258" stroke-width="1.8572" stroke-linecap="round" stroke-linejoin="round" stroke-miterlimit="10" d="
			M667.806,323.533c0.464,0,7.273,1.006,11.453,0.077c4.179-0.928,10.757,0.078,10.757,0.078"/>
	</g>
	<g>
		<path fill="#00B258" d="M618.876,376.09c0.618-4.275,1.363-8.533,2.257-12.767c0.45-2.115,0.942-4.224,1.527-6.313
			c0.296-1.044,0.613-2.084,0.982-3.113c0.373-1.027,0.782-2.048,1.361-3.028l-0.062,0.159l1.183-6.961l0.279-1.737
			c0.047-0.292,0.091-0.584,0.118-0.824c0.04-0.277,0.045-0.582,0.079-0.891l0.337-3.528l0.654-7.029
			c0.19-2.334,0.427-4.709,0.473-6.994c-0.081-1.046-0.143-2.354-0.134-3.531c-0.002-1.185,0.013-2.367,0.042-3.549
			c0.071-2.366,0.138-4.721,0.369-7.104c0.062-0.593,0.157-1.229,0.247-1.805c0.1-0.557,0.181-1.138,0.266-1.72
			c0.168-1.164,0.337-2.337,0.532-3.506c0.391-2.34,0.85-4.679,1.549-6.984c0.352-1.15,0.759-2.297,1.315-3.406
			c0.565-1.094,1.234-2.227,2.415-3.033c0.661-0.412,1.141-0.57,1.688-0.836c0.553-0.237,1.027-0.509,1.535-0.765
			c1.004-0.542,1.929-1.173,2.954-1.835c1.023-0.667,2.217-1.185,3.272-1.621l3.252-1.38l6.498-2.768l6.474-2.802l0.788-0.357
			l0.178-0.086c0.022-0.012,0.049-0.027,0.025-0.013c-0.013-0.007-0.251,0.198-0.282,0.332l0.011-0.025l0.022-0.05
			c0.058-0.131,0.13-0.276,0.175-0.395c0.194-0.472,0.387-1.042,0.556-1.578c0.341-1.097,0.635-2.219,0.87-3.341
			c0.119-0.561,0.222-1.125,0.291-1.674c0.062-0.561,0.126-1.079,0-1.423c-0.016-0.013-0.024-0.027-0.029-0.044l-0.074-0.122
			c-0.056-0.091-0.136-0.195-0.22-0.31c-0.171-0.229-0.368-0.488-0.543-0.76c-0.354-0.542-0.654-1.117-0.892-1.699
			c-0.94-2.337-1.303-4.723-1.624-7.09l0.519,0.681c-0.643-0.278-1.217-0.571-1.812-0.973c-0.295-0.204-0.592-0.427-0.885-0.771
			c-0.073-0.091-0.146-0.195-0.215-0.3c-0.06-0.109-0.148-0.305-0.165-0.354l-0.163-0.428c-0.458-1.184-0.887-2.399-1.224-3.654
			c-0.322-1.262-0.613-2.55-0.531-3.998c0.027-0.362,0.082-0.737,0.202-1.125c0.102-0.376,0.387-0.83,0.531-1.038
			c0.1-0.145,0.248-0.32,0.374-0.477c0.133-0.135,0.259-0.274,0.4-0.398c0.294-0.26,0.555-0.46,0.972-0.682l-0.486,0.915
			c-0.25-1.698-0.462-3.384-0.64-5.086c-0.172-1.703-0.319-3.407-0.335-5.159c-0.006-0.438,0.008-0.883,0.037-1.338
			c0.038-0.463,0.069-0.911,0.26-1.483c0.141-0.361,0.211-0.46,0.307-0.669l0.276-0.57l0.57-1.152
			c0.777-1.534,1.623-3.044,2.579-4.497c0.958-1.45,2.021-2.854,3.296-4.108c1.271-1.239,2.787-2.381,4.663-2.899
			c1.696-0.428,3.374-0.76,5.078-1.031c1.703-0.267,3.425-0.461,5.165-0.521c1.739-0.061,3.499,0,5.258,0.294
			c1.762,0.29,3.517,0.924,5.054,1.825c1.539,0.877,2.95,1.922,4.268,3.075c1.314,1.157,2.527,2.437,3.585,3.855
			c1.05,1.421,1.961,2.99,2.495,4.754c0.264,0.876,0.421,1.818,0.425,2.748c-0.006,0.854,0.045,1.68-0.007,2.56
			c-0.062,1.753-0.188,3.458-0.395,5.162c-0.195,1.708-0.439,3.391-0.764,5.098l-0.317-0.852c0.788,0.673,1.312,1.414,1.671,2.35
			c0.17,0.469,0.27,0.938,0.286,1.476c0,0.206,0.009,0.396,0.001,0.617l-0.066,0.729c-0.134,0.904-0.416,1.736-0.702,2.514
			l-0.864,2.301c-0.319,0.788-0.689,1.595-1.298,2.349c-0.31,0.372-0.689,0.733-1.184,0.993c-0.487,0.26-1.097,0.392-1.645,0.325
			l-0.052-0.003c-0.097-0.006,0.07,0.005,0.041,0.004h-0.068c0.111,0.009,0.205-0.031,0.224-0.041
			c0.07-0.031,0.083-0.066,0.067-0.043c-0.025,0.026-0.096,0.16-0.145,0.302c-0.104,0.296-0.184,0.662-0.244,1.032
			c-0.119,0.748-0.181,1.537-0.221,2.328c-0.077,1.587-0.068,3.196-0.03,4.804l0.085,2.415l0.061,1.211
			c0.017,0.176,0.015,0.511,0.015,0.617c0.009,0.148,0.028,0.303,0.062,0.459c0.276,1.285,1.348,2.46,2.513,3.405
			c1.195,0.95,2.57,1.729,4.005,2.39c2.932,1.396,5.885,2.722,8.799,4.19c1.463,0.716,2.924,1.437,4.368,2.185l2.171,1.116
			l2.111,1.131c1.417,0.615,3,1.214,4.476,1.955c0.745,0.37,1.483,0.772,2.196,1.251c0.707,0.484,1.413,1.017,1.982,1.807
			c0.075,0.117,0.118,0.176,0.218,0.346l0.135,0.271c0.093,0.172,0.181,0.367,0.263,0.589c0.183,0.433,0.3,0.825,0.433,1.229
			c0.238,0.802,0.443,1.604,0.62,2.408c0.355,1.606,0.636,3.221,0.87,4.84c0.459,3.228,0.788,6.517,0.729,9.79
			c-0.028,3.263-0.122,6.5-0.192,9.745c-0.068,3.241-0.15,6.486-0.136,9.719c0.018,1.635,0.016,3.192,0.281,4.786l0.672,4.817
			c0.474,3.2,0.929,6.42,1.7,9.534c0.341,1.555,1.139,2.947,1.614,4.561c0.497,1.558,0.931,3.124,1.365,4.687
			c0.215,0.782,0.44,1.559,0.676,2.329l0.391,1.146c0.128,0.409,0.2,0.823,0.271,1.226c0.259,1.616,0.403,3.232,0.551,4.852
			l0.397,4.853l0.209,2.426c0.094,0.803,0.126,1.622,0.349,2.401c-0.248-0.773-0.307-1.594-0.426-2.394l-0.288-2.418l-0.554-4.836
			c-0.198-1.607-0.396-3.222-0.701-4.799c-0.082-0.396-0.165-0.779-0.291-1.143l-0.417-1.148c-0.252-0.776-0.494-1.556-0.724-2.332
			c-0.467-1.557-0.927-3.108-1.444-4.636c-0.271-0.748-0.537-1.493-0.88-2.236c-0.327-0.727-0.639-1.56-0.835-2.339
			c-0.846-3.175-1.367-6.384-1.893-9.593l-0.723-4.814c-0.124-0.78-0.24-1.651-0.268-2.466c-0.042-0.821-0.063-1.638-0.075-2.451
			c-0.048-3.258-0.001-6.503,0.034-9.75c0.035-3.243,0.096-6.494,0.089-9.723c0.024-3.219-0.322-6.406-0.808-9.597
			c-0.246-1.589-0.536-3.173-0.896-4.729c-0.378-1.546-0.76-3.138-1.482-4.32c-0.818-1.071-2.276-1.869-3.668-2.556
			c-1.434-0.701-2.896-1.232-4.464-1.893l-2.191-1.145l-2.163-1.096c-1.439-0.74-2.893-1.451-4.346-2.157
			c-2.886-1.444-5.857-2.77-8.791-4.153c-1.512-0.691-2.988-1.515-4.339-2.58c-1.308-1.081-2.641-2.391-3.102-4.326
			c-0.056-0.238-0.089-0.487-0.104-0.743c-0.006-0.3,0.002-0.369-0.016-0.6l-0.064-1.221l-0.093-2.448
			c-0.044-1.636-0.058-3.272,0.019-4.929c0.039-0.829,0.099-1.659,0.232-2.515c0.07-0.431,0.153-0.862,0.316-1.333
			c0.091-0.238,0.182-0.483,0.405-0.777c0.106-0.141,0.276-0.312,0.526-0.436c0.108-0.057,0.301-0.117,0.514-0.126l0.225,0.007
			c0.977,0.166,1.858-1.203,2.394-2.618l0.84-2.258c0.273-0.744,0.506-1.463,0.607-2.166l0.048-0.482
			c0.007-0.185-0.003-0.4-0.004-0.6c-0.009-0.272-0.072-0.608-0.184-0.9c-0.207-0.585-0.669-1.201-1.114-1.576l-0.021-0.018
			c-0.25-0.211-0.354-0.533-0.298-0.834c0.304-1.625,0.542-3.303,0.728-4.962c0.197-1.661,0.312-3.343,0.366-4.977
			c0.051-0.812-0.003-1.686,0-2.524c-0.006-0.766-0.132-1.512-0.355-2.258c-0.454-1.487-1.267-2.898-2.231-4.194
			c-0.971-1.297-2.105-2.489-3.339-3.568c-1.234-1.076-2.565-2.053-3.976-2.85c-1.396-0.808-2.878-1.339-4.463-1.6
			c-1.59-0.261-3.233-0.315-4.881-0.255c-3.286,0.135-6.635,0.692-9.836,1.471c-1.416,0.381-2.728,1.315-3.867,2.43
			c-1.146,1.122-2.151,2.431-3.063,3.804c-0.911,1.377-1.729,2.827-2.489,4.314l-0.562,1.124l-0.279,0.57
			c-0.085,0.175-0.223,0.447-0.229,0.483c-0.174,0.524-0.201,1.433-0.202,2.219c0.01,1.639,0.146,3.317,0.312,4.987
			c0.169,1.669,0.375,3.349,0.614,5.005c0.054,0.373-0.136,0.726-0.448,0.896l-0.038,0.021c-0.136,0.074-0.389,0.242-0.561,0.404
			c-0.095,0.081-0.178,0.178-0.268,0.263c-0.066,0.092-0.13,0.149-0.211,0.261c-0.205,0.312-0.261,0.393-0.338,0.622
			c-0.065,0.213-0.105,0.462-0.128,0.725c-0.07,1.065,0.167,2.271,0.468,3.431c0.312,1.17,0.712,2.326,1.156,3.482l0.171,0.452
			c0.037,0.1,0.026,0.04,0.031,0.073l0.061,0.082c0.111,0.136,0.312,0.306,0.534,0.455c0.442,0.303,0.989,0.587,1.497,0.808
			l0.008,0.003c0.287,0.125,0.473,0.39,0.512,0.679c0.298,2.288,0.665,4.608,1.486,6.652c0.206,0.51,0.452,0.98,0.739,1.427
			c0.146,0.226,0.303,0.436,0.484,0.679c0.182,0.271,0.391,0.475,0.591,1.027c0.032,0.098,0.041,0.149,0.062,0.227l0.015,0.054
			c0-0.008,0.033,0.152,0.021,0.104l0.004,0.038l0.016,0.148c0.023,0.211,0.017,0.377,0.013,0.548
			c-0.011,0.339-0.042,0.653-0.084,0.962c-0.081,0.618-0.192,1.215-0.319,1.806c-0.252,1.182-0.558,2.339-0.92,3.492
			c-0.188,0.584-0.367,1.132-0.626,1.747c-0.062,0.157-0.123,0.274-0.184,0.414l-0.023,0.051l-0.012,0.023
			c-0.045,0.147-0.297,0.364-0.325,0.367l-0.168,0.093l-0.221,0.106l-0.82,0.37l-6.504,2.792l-6.511,2.75l-3.257,1.368
			c-1.117,0.463-2.098,0.883-3.054,1.496c-0.953,0.613-1.982,1.305-3.06,1.869c-0.546,0.271-1.103,0.571-1.635,0.794
			c-0.515,0.235-1.151,0.486-1.485,0.704c-0.793,0.516-1.424,1.461-1.928,2.439c-0.511,0.99-0.908,2.067-1.254,3.165
			c-0.689,2.197-1.164,4.485-1.57,6.787c-0.202,1.15-0.381,2.31-0.561,3.474c-0.092,0.582-0.178,1.167-0.291,1.77
			c-0.097,0.587-0.18,1.115-0.247,1.692c-0.247,2.306-0.339,4.662-0.432,7.001c-0.04,1.173-0.065,2.345-0.075,3.516
			c-0.017,1.18,0.017,2.225,0.1,3.528c-0.072,2.425-0.33,4.739-0.545,7.097l-0.724,7.033l-0.367,3.501
			c-0.035,0.277-0.042,0.563-0.087,0.868c-0.038,0.345-0.09,0.634-0.138,0.923l-0.298,1.747l-1.27,6.956
			c-0.011,0.057-0.032,0.112-0.062,0.159c-0.552,0.862-0.989,1.841-1.385,2.828c-0.396,0.99-0.744,2.006-1.071,3.028
			c-0.649,2.048-1.214,4.13-1.733,6.223C620.531,367.611,619.64,371.839,618.876,376.09z"/>
	</g>
</g>
</svg>
