<?xml version="1.0" encoding="utf-8"?>
<!-- Generator: Adobe Illustrator 16.0.4, SVG Export Plug-In . SVG Version: 6.00 Build 0)  -->
<!DOCTYPE svg PUBLIC "-//W3C//DTD SVG 1.1//EN" "http://www.w3.org/Graphics/SVG/1.1/DTD/svg11.dtd">
<svg version="1.1" id="Layer_1" xmlns="http://www.w3.org/2000/svg" xmlns:xlink="http://www.w3.org/1999/xlink" x="0px" y="0px"
	 width="1099.25px" height="78px" viewBox="69.75 0 1099.25 78" enable-background="new 69.75 0 1099.25 78" xml:space="preserve">
<g>
	<g>
		<g>
			<path fill="#ED1C24" d="M1169,44.42c-25.228,2.173-53.961,4.325-85.477,6.376c-30.008,1.961-62.536,3.8-96.953,5.513
				c-34.418,1.711-70.726,3.272-108.297,4.611c-75.14,2.703-155.33,4.562-235.533,5.193c-80.201,0.652-160.416,0.011-235.58-2.078
				C332,61.91,261.89,58.255,201.947,53.209c-29.971-2.514-57.399-5.363-81.646-8.411c-18.88-2.365-35.817-4.859-50.55-7.299v0.211
				c14.72,2.484,31.642,5.031,50.505,7.453c24.243,3.123,51.669,6.062,81.64,8.668c59.942,5.235,130.058,9.11,205.229,11.469
				c75.177,2.322,155.408,3.214,235.632,2.813c80.224-0.383,160.44-1.991,235.613-4.463c37.587-1.221,73.913-2.67,108.352-4.274
				c34.437-1.606,66.987-3.345,97.019-5.213c31.415-1.946,60.07-4.002,85.262-6.091V44.42z"/>
		</g>
		<g>
			<path fill="#00B8F1" d="M1169,57.684c-2.038,0.114-4.092,0.227-6.177,0.338c-24.325,1.305-51.79,2.457-81.762,3.42
				c-29.972,0.965-62.453,1.709-96.812,2.254c-34.357,0.543-70.595,0.859-108.082,0.918c-74.975,0.144-154.951-0.727-234.902-2.729
				c-79.95-1.995-159.873-5.171-234.727-9.495c-74.85-4.348-144.627-9.897-204.266-16.326c-29.818-3.204-57.102-6.621-81.22-10.099
				c-19.215-2.764-36.411-5.578-51.304-8.258v0.105c14.885,2.703,32.072,5.542,51.276,8.336
				c24.115,3.516,51.396,6.976,81.213,10.228c59.635,6.521,129.411,12.182,204.263,16.646c74.854,4.441,154.78,7.744,234.736,9.863
				c79.957,2.129,159.943,3.123,234.93,3.098c37.493,0,73.737-0.26,108.104-0.75c34.366-0.491,66.856-1.184,96.84-2.103
				c29.984-0.916,57.462-2.026,81.806-3.295c2.053-0.106,4.074-0.214,6.082-0.323V57.684z"/>
		</g>
		<g>
			<path fill="#3952A4" d="M1169,69.589c-2.125,0.095-4.266,0.19-6.441,0.287c-24.297,1.104-51.725,2.021-81.647,2.927
				c-14.963,0.389-30.55,0.793-46.682,1.211c-16.134,0.319-32.812,0.746-49.961,1.008c-17.148,0.293-34.764,0.604-52.772,0.807
				c-9.003,0.111-18.104,0.227-27.293,0.34c-9.188,0.082-18.466,0.165-27.819,0.249c-18.709,0.202-37.731,0.239-56.986,0.354
				c-19.255,0.033-38.745,0.065-58.39,0.1c-39.29-0.074-79.204-0.227-119.115-0.663c-9.979-0.104-19.955-0.212-29.923-0.317
				c-9.967-0.146-19.925-0.293-29.863-0.438c-19.877-0.259-39.673-0.671-59.312-1.054c-9.821-0.174-19.602-0.398-29.332-0.647
				c-9.731-0.237-19.414-0.476-29.038-0.709c-19.245-0.565-38.257-1.124-56.956-1.673c-18.695-0.689-37.081-1.271-55.071-2.014
				c-8.994-0.379-17.891-0.756-26.681-1.125c-4.396-0.187-8.763-0.371-13.104-0.553c-4.339-0.216-8.649-0.429-12.931-0.641
				c-17.125-0.857-33.787-1.617-49.889-2.609c-8.052-0.465-15.968-0.923-23.739-1.371c-7.771-0.449-15.386-1.018-22.851-1.504
				c-7.465-0.503-14.772-0.996-21.915-1.478c-7.137-0.556-14.108-1.097-20.905-1.626c-6.796-0.535-13.417-1.055-19.854-1.561
				c-6.43-0.586-12.674-1.156-18.725-1.707c-6.05-0.557-11.907-1.096-17.559-1.615c-5.653-0.524-11.084-1.176-16.313-1.721
				c-5.226-0.566-10.238-1.109-15.029-1.627c-1.063-0.116-2.111-0.231-3.152-0.346v4.771c0.87,0.092,1.739,0.184,2.624,0.276
				c4.804,0.501,9.83,1.023,15.071,1.571c5.241,0.526,10.689,1.157,16.354,1.659c5.665,0.498,11.534,1.017,17.597,1.55
				c6.063,0.53,12.321,1.075,18.764,1.637c6.447,0.481,13.08,0.978,19.888,1.485c6.808,0.503,13.79,1.019,20.938,1.546
				c7.151,0.456,14.47,0.919,21.942,1.394c7.476,0.459,15.102,0.996,22.879,1.416c7.779,0.418,15.703,0.844,23.765,1.279
				c16.118,0.93,32.795,1.623,49.934,2.415c4.285,0.194,8.599,0.392,12.941,0.59c4.344,0.166,8.715,0.334,13.112,0.502
				c8.796,0.337,17.7,0.677,26.7,1.021c18.002,0.674,36.399,1.184,55.104,1.8c18.708,0.476,37.729,0.96,56.983,1.45
				c9.628,0.197,19.315,0.396,29.05,0.596c9.735,0.212,19.52,0.396,29.343,0.533c19.647,0.305,39.45,0.64,59.332,0.82
				c9.941,0.108,19.901,0.217,29.871,0.323c9.972,0.065,19.951,0.134,29.932,0.2c39.92,0.279,79.842,0.275,119.138,0.195
				c19.647-0.109,39.14-0.219,58.397-0.327c19.258-0.19,38.281-0.304,56.992-0.577c9.355-0.12,18.633-0.24,27.822-0.357
				c9.19-0.15,18.291-0.3,27.295-0.447c18.009-0.272,35.626-0.652,52.775-1.012c17.148-0.328,33.827-0.822,49.962-1.205
				c16.132-0.481,31.719-0.947,46.682-1.394c29.922-1.022,57.348-2.047,81.646-3.246c2.167-0.104,4.3-0.208,6.417-0.312V69.589z"/>
		</g>
	</g>
	<g>
		<g>
			<path fill="#CCDC2B" d="M1169,38.601c-3.098,0.436-6.249,0.869-9.461,1.297c-24.152,3.236-51.485,6.26-81.36,8.918
				c-59.749,5.342-129.656,9.188-204.604,11.392c-74.95,2.166-154.943,2.778-234.92,2.009c-79.976-0.748-159.938-2.811-234.857-5.77
				c-37.46-1.465-73.66-3.17-107.973-5.028c-34.313-1.862-66.74-3.856-96.651-5.981c-51.758-3.657-95.987-7.604-129.424-11.445
				v3.804c33.48,3.731,77.603,7.525,129.189,11.011c29.938,2.032,62.39,3.926,96.724,5.682c34.334,1.754,70.553,3.344,108.03,4.693
				c74.955,2.725,154.945,4.537,234.946,5.037c80,0.52,160.011-0.345,234.974-2.744c74.961-2.438,144.873-6.504,204.621-12.033
				c29.874-2.754,57.204-5.863,81.354-9.174c3.194-0.437,6.329-0.877,9.411-1.321V38.601z"/>
		</g>
		<g>
			<path fill="#00B8F1" d="M1169,20.937c-1.68,0.245-3.372,0.49-5.084,0.735c-24.168,3.465-51.5,6.91-81.369,10.189
				c-59.739,6.576-129.622,12.464-204.588,17.311c-74.969,4.824-155.017,8.661-235.1,11.413
				c-80.083,2.761-160.201,4.485-235.318,5.228c-37.558,0.381-73.866,0.513-108.295,0.414c-34.431-0.1-66.98-0.402-97.021-0.938
				c-30.041-0.534-57.573-1.27-81.965-2.182c-18.804-0.693-35.731-1.522-50.51-2.429v1.898c14.771,0.881,31.676,1.683,50.443,2.346
				c24.407,0.874,51.952,1.567,82.003,2.054c30.052,0.488,62.609,0.74,97.047,0.785c34.437,0.045,70.751-0.143,108.313-0.582
				c75.127-0.859,155.251-2.709,235.338-5.596C722.982,58.707,803.031,54.745,878,49.805
				c74.965-4.966,144.846-10.963,204.579-17.634c29.867-3.326,57.197-6.813,81.362-10.317c1.703-0.247,3.387-0.493,5.059-0.74
				V20.937z"/>
		</g>
		<g>
			<path fill="#21B157" d="M1169,45.27c-2.625,0.279-5.283,0.562-7.986,0.851c-6.043,0.639-12.281,1.297-18.702,1.976
				c-6.431,0.59-13.046,1.198-19.836,1.821c-6.791,0.618-13.757,1.252-20.887,1.899c-7.139,0.567-14.442,1.149-21.9,1.744
				c-7.46,0.576-15.069,1.237-22.836,1.776c-7.767,0.537-15.679,1.084-23.728,1.64c-16.093,1.178-32.75,2.108-49.868,3.146
				c-4.281,0.256-8.591,0.516-12.928,0.775c-4.339,0.227-8.706,0.455-13.1,0.684c-8.788,0.457-17.684,0.92-26.676,1.389
				c-17.986,0.92-36.372,1.663-55.063,2.528c-18.698,0.712-37.709,1.437-56.953,2.168c-9.624,0.313-19.307,0.631-29.037,0.948
				c-4.866,0.16-9.744,0.32-14.634,0.479c-4.889,0.135-9.79,0.27-14.7,0.406c-19.641,0.536-39.438,1.105-59.317,1.507
				c-9.939,0.222-19.898,0.44-29.866,0.66c-9.97,0.175-19.949,0.351-29.928,0.526c-39.917,0.717-79.839,1.123-119.139,1.441
				c-19.649,0.082-39.144,0.164-58.403,0.244c-19.261-0.01-38.288,0.064-57.002-0.043c-9.358-0.035-18.637-0.068-27.829-0.104
				c-9.19-0.068-18.295-0.137-27.301-0.205c-18.013-0.112-35.635-0.346-52.789-0.562c-17.154-0.182-33.838-0.547-49.979-0.798
				c-16.137-0.359-31.729-0.706-46.697-1.038c-29.934-0.808-57.37-1.642-81.678-2.698c-6.075-0.261-11.959-0.511-17.636-0.752
				c-5.675-0.293-11.146-0.574-16.401-0.846C80.45,66.568,74.97,66.24,69.75,65.911v0.265c5.215,0.351,10.689,0.698,16.434,0.987
				c5.256,0.291,10.727,0.594,16.401,0.907c5.677,0.265,11.558,0.539,17.635,0.822c24.306,1.152,51.742,2.094,81.675,3.019
				c14.97,0.392,30.562,0.8,46.699,1.222c16.141,0.312,32.824,0.744,49.98,0.993c17.154,0.284,34.777,0.585,52.793,0.769
				c9.007,0.104,18.112,0.207,27.304,0.312c9.193,0.07,18.474,0.141,27.832,0.212c18.717,0.181,37.747,0.183,57.01,0.267
				c19.264-0.006,38.762-0.011,58.415-0.017c39.307-0.164,79.238-0.414,119.166-0.976c9.982-0.137,19.965-0.272,29.938-0.409
				c9.972-0.183,19.934-0.362,29.876-0.544c19.886-0.323,39.69-0.816,59.34-1.274c4.913-0.118,9.814-0.233,14.707-0.351
				c4.891-0.141,9.771-0.28,14.639-0.42c9.737-0.279,19.424-0.559,29.052-0.836c19.255-0.656,38.275-1.307,56.984-1.945
				c18.704-0.792,37.101-1.464,55.1-2.314c8.999-0.433,17.901-0.861,26.696-1.283c4.396-0.213,8.768-0.424,13.11-0.633
				c4.341-0.244,8.653-0.486,12.938-0.726c17.135-0.974,33.807-1.838,49.919-2.954c8.058-0.525,15.98-1.042,23.755-1.548
				c7.775-0.509,15.397-1.144,22.867-1.69c7.47-0.564,14.784-1.117,21.932-1.658c7.144-0.623,14.12-1.229,20.924-1.82
				c6.802-0.6,13.43-1.182,19.871-1.747c6.437-0.653,12.688-1.29,18.744-1.905c2.543-0.261,5.043-0.517,7.516-0.771V45.27z"/>
		</g>
	</g>
</g>
</svg>
