<?xml version="1.0" encoding="utf-8"?>
<!-- Generator: Adobe Illustrator 16.0.0, SVG Export Plug-In . SVG Version: 6.00 Build 0)  -->
<!DOCTYPE svg PUBLIC "-//W3C//DTD SVG 1.1//EN" "http://www.w3.org/Graphics/SVG/1.1/DTD/svg11.dtd">
<svg version="1.1" id="Layer_1" xmlns="http://www.w3.org/2000/svg" xmlns:xlink="http://www.w3.org/1999/xlink" x="0px" y="0px"
	 width="1281.229px" height="80.692px" viewBox="0 0 1281.229 80.692" enable-background="new 0 0 1281.229 80.692"
	 xml:space="preserve">
<g>
	<g>
		<path fill="#ED1C24" d="M1.191,11.489c0,0,1.199,0.372,3.521,1.095c0.58,0.178,1.23,0.377,1.95,0.598
			c0.716,0.188,1.5,0.393,2.351,0.616c1.709,0.438,3.654,0.995,5.951,1.491c9.091,2.156,22.617,4.76,39.946,7.486
			c17.329,2.729,38.453,5.632,62.744,8.517c24.291,2.888,51.742,5.804,81.723,8.654c29.98,2.859,62.495,5.604,96.908,8.231
			c34.413,2.621,70.727,5.096,108.313,7.317c75.172,4.475,155.434,8.005,235.737,10.04c80.302,2.059,160.648,2.548,235.946,1.188
			c75.293-1.399,145.539-4.744,205.564-9.939c30.012-2.585,57.467-5.621,81.716-8.942c24.251-3.31,45.291-6.926,62.52-10.379
			c2.153-0.435,4.249-0.857,6.285-1.268c1.019-0.205,2.022-0.408,3.011-0.607c0.984-0.222,1.954-0.439,2.908-0.655
			c3.817-0.859,7.395-1.665,10.724-2.415c6.642-1.569,12.255-3.059,16.824-4.19c9.059-2.564,13.89-3.933,13.89-3.933
			s-4.827,1.383-13.878,3.976c-4.566,1.146-10.174,2.653-16.813,4.243c-3.328,0.761-6.904,1.578-10.718,2.449
			c-0.954,0.219-1.923,0.439-2.906,0.664c-0.988,0.203-1.991,0.408-3.01,0.617c-2.035,0.417-4.13,0.847-6.282,1.288
			c-17.222,3.508-38.256,7.189-62.503,10.575c-24.246,3.397-51.699,6.521-81.712,9.199c-60.027,5.384-130.283,8.948-205.594,10.583
			c-75.315,1.594-155.686,1.354-236.018-0.455c-80.334-1.786-160.633-5.066-235.848-9.31c-37.608-2.104-73.945-4.468-108.384-6.983
			c-34.438-2.521-66.98-5.166-96.993-7.935c-30.013-2.76-57.5-5.593-81.833-8.409c-24.334-2.813-45.511-5.654-62.911-8.34
			C36.918,23.875,23.3,21.3,14.061,19.14c-2.307-0.491-4.364-1.069-6.134-1.519c-0.885-0.23-1.7-0.442-2.443-0.636
			c-0.723-0.22-1.376-0.418-1.959-0.595C1.2,15.677,0,15.308,0,15.308L1.191,11.489z"/>
	</g>
	<g>
		<path fill="#00B8F1" d="M3.39,30.941c0,0,1.197,0.364,3.517,1.07c0.581,0.174,1.23,0.368,1.95,0.584
			c0.722,0.179,1.512,0.374,2.371,0.586c1.722,0.415,3.69,0.957,5.992,1.401c9.13,1.989,22.7,4.234,40.067,6.404
			c17.368,2.173,38.527,4.333,62.843,6.298c24.315,1.975,51.783,3.816,81.769,5.467c29.986,1.653,62.492,3.075,96.884,4.285
			c34.392,1.211,70.672,2.176,108.209,2.846c75.073,1.371,155.177,1.588,235.263,0.43c40.043-0.564,80.081-1.52,119.481-2.813
			c39.399-1.303,78.163-2.949,115.651-4.999c74.976-4.096,144.86-9.735,204.54-16.598c29.84-3.42,57.127-7.137,81.228-10.975
			c24.103-3.828,45.012-7.796,62.142-11.473c8.579-1.78,16.178-3.637,22.802-5.193c6.607-1.628,12.197-3.137,16.743-4.301
			C1273.866,1.378,1278.679,0,1278.679,0s-4.811,1.385-13.831,3.982c-4.544,1.172-10.132,2.689-16.737,4.327
			c-6.622,1.567-14.22,3.436-22.796,5.229c-17.126,3.704-38.031,7.705-62.131,11.571c-24.098,3.876-51.382,7.635-81.221,11.103
			C1022.286,43.17,952.4,48.919,877.422,53.132c-37.49,2.108-76.256,3.815-115.659,5.181c-39.403,1.354-79.445,2.373-119.493,3
			c-80.096,1.283-160.212,1.191-235.302-0.063c-37.545-0.611-73.834-1.52-108.238-2.677c-34.403-1.157-66.921-2.529-96.922-4.137
			c-30.001-1.604-57.486-3.403-81.824-5.342c-24.339-1.929-45.526-4.058-62.934-6.208c-17.408-2.147-31.031-4.378-40.248-6.371
			c-2.308-0.442-4.342-0.995-6.1-1.417c-0.878-0.217-1.687-0.416-2.425-0.599c-0.721-0.215-1.373-0.408-1.955-0.582
			c-2.321-0.702-3.519-1.064-3.519-1.064L3.39,30.941z"/>
	</g>
	<g>
		<path fill="#3952A4" d="M3.096,48.896c0,0,1.226,0.235,3.601,0.691c1.188,0.229,2.662,0.512,4.414,0.849
			c1.757,0.313,3.772,0.792,6.098,1.073c2.317,0.329,4.904,0.697,7.752,1.102c2.852,0.378,5.947,0.911,9.325,1.25
			c3.372,0.382,6.995,0.793,10.861,1.23c1.933,0.22,3.926,0.445,5.979,0.678c2.053,0.23,4.172,0.404,6.346,0.617
			c8.7,0.802,18.322,1.796,28.825,2.582c5.249,0.423,10.711,0.863,16.377,1.32c5.671,0.402,11.546,0.818,17.615,1.248
			c24.276,1.744,51.692,3.311,81.604,4.905c14.961,0.72,30.544,1.469,46.674,2.244c8.066,0.341,16.27,0.688,24.6,1.04
			c8.329,0.362,16.786,0.709,25.362,1.011c17.15,0.64,34.767,1.311,52.779,1.854c9.005,0.285,18.108,0.573,27.299,0.864
			c9.191,0.252,18.471,0.506,27.829,0.763c18.714,0.555,37.745,0.915,57.007,1.374c19.264,0.358,38.763,0.722,58.417,1.088
			c39.312,0.561,79.248,1.038,119.187,1.168c9.984,0.037,19.969,0.074,29.943,0.111c9.975-0.014,19.94-0.026,29.885-0.04
			c19.891,0.016,39.703-0.159,59.359-0.298c4.914-0.036,9.818-0.073,14.711-0.11c4.893-0.063,9.774-0.128,14.645-0.191
			c9.739-0.127,19.43-0.254,29.062-0.379c19.262-0.369,38.29-0.732,57.005-1.091c9.356-0.249,18.634-0.497,27.824-0.742
			c9.19-0.26,18.294-0.447,27.295-0.792c9.002-0.312,17.907-0.619,26.705-0.924c4.398-0.152,8.771-0.305,13.114-0.456
			c4.343-0.188,8.657-0.376,12.942-0.563c17.14-0.756,33.816-1.407,49.93-2.343c8.059-0.432,15.981-0.856,23.758-1.272
			c7.776-0.423,15.397-0.98,22.867-1.449c7.469-0.486,14.782-0.964,21.93-1.43c7.14-0.556,14.116-1.1,20.916-1.63
			c6.8-0.535,13.425-1.058,19.865-1.564c6.43-0.606,12.676-1.194,18.729-1.765c6.051-0.575,11.908-1.131,17.563-1.668
			c5.652-0.55,11.081-1.242,16.308-1.819c5.225-0.599,10.236-1.173,15.025-1.722c2.394-0.279,4.732-0.553,7.013-0.818
			c2.273-0.316,4.491-0.624,6.65-0.925c8.637-1.199,16.349-2.271,23.058-3.203c6.694-1.017,12.353-2.068,16.959-2.824
			c9.202-1.565,14.11-2.399,14.11-2.399l0.091-0.016c1.361-0.231,2.652,0.685,2.884,2.045c0.231,1.361-0.685,2.652-2.045,2.884
			l-0.009,0.001c0,0-4.94,0.821-14.202,2.359c-4.635,0.742-10.335,1.777-17.064,2.772c-6.74,0.91-14.486,1.955-23.163,3.126
			c-2.169,0.293-4.396,0.594-6.68,0.901c-2.289,0.259-4.635,0.523-7.037,0.794c-4.805,0.531-9.833,1.088-15.074,1.668
			c-5.243,0.558-10.692,1.231-16.359,1.76c-5.667,0.517-11.54,1.051-17.606,1.603c-6.066,0.548-12.327,1.113-18.773,1.695
			c-6.452,0.482-13.09,0.979-19.902,1.489c-6.813,0.504-13.801,1.021-20.955,1.551c-7.158,0.438-14.482,0.888-21.963,1.346
			c-7.48,0.439-15.113,0.968-22.899,1.36c-7.786,0.387-15.718,0.78-23.786,1.182c-16.135,0.873-32.826,1.459-49.982,2.148
			c-4.289,0.17-8.607,0.341-12.953,0.513c-4.348,0.134-8.724,0.27-13.126,0.405c-8.804,0.271-17.716,0.543-26.726,0.82
			c-9.008,0.31-18.118,0.461-27.313,0.686c-9.196,0.209-18.48,0.42-27.842,0.633c-18.726,0.285-37.763,0.575-57.034,0.868
			c-9.637,0.088-19.331,0.177-29.075,0.266c-4.872,0.045-9.755,0.09-14.651,0.134c-4.895,0.019-9.801,0.036-14.716,0.054
			c-19.663,0.062-39.481,0.158-59.378,0.065c-9.948-0.026-19.916-0.052-29.893-0.077c-9.978-0.076-19.964-0.152-29.951-0.229
			c-39.947-0.286-79.891-0.92-119.207-1.635c-19.656-0.442-39.156-0.882-58.423-1.316c-19.264-0.534-38.296-0.97-57.011-1.598
			c-9.357-0.293-18.638-0.584-27.83-0.872c-9.19-0.326-18.293-0.65-27.299-0.971c-18.013-0.614-35.63-1.354-52.779-2.061
			c-8.576-0.336-17.032-0.715-25.361-1.11c-8.33-0.385-16.532-0.765-24.599-1.137c-16.128-0.839-31.711-1.648-46.67-2.427
			c-29.911-1.713-57.323-3.387-81.596-5.226c-6.068-0.454-11.942-0.893-17.612-1.316c-5.666-0.479-11.127-0.941-16.375-1.385
			c-10.5-0.828-20.121-1.859-28.819-2.695c-2.173-0.222-4.292-0.404-6.344-0.642c-2.053-0.241-4.045-0.475-5.978-0.701
			c-3.865-0.453-7.487-0.879-10.858-1.274c-3.376-0.352-6.473-0.897-9.323-1.286c-2.847-0.416-5.433-0.794-7.749-1.133
			c-2.324-0.29-4.338-0.777-6.093-1.097c-1.751-0.344-3.225-0.633-4.411-0.865C4.321,49.137,3.096,48.896,3.096,48.896z"/>
	</g>
</g>
</svg>
